<svg width="442" height="434" viewBox="0 0 442 434" fill="none" xmlns="http://www.w3.org/2000/svg">
<g clip-path="url(#clip0_137_172)">
<g opacity="0.21">
<path d="M83.4599 371.84C34.5899 350.96 11.2399 331.76 3.26989 297.9C-4.70011 264.04 5.02989 226.09 28.0599 201.17C40.1499 188.09 55.3999 178.59 67.0599 165.05C82.1599 147.49 90.0599 124.5 101.27 103.89C125.46 59.27 158.9 21.43 205.46 7.18C252.02 -7.07 311.2 2.45 354.01 26.56C375.49 38.66 395.86 57 401.77 82.05C408.22 109.38 396.18 138.91 403.15 166.1C408.07 185.3 421.72 200.41 430.36 218.1C452.27 262.89 438.43 320.65 406.61 358.16C374.79 395.67 328.46 415.79 282.11 426.87C261.79 431.72 240.76 435.07 220.19 431.71C170.67 423.6 154.08 399.71 83.4599 371.84Z" fill="#3D2665" stroke="#3D2665" stroke-width="6" stroke-miterlimit="10" stroke-dasharray="3 3"/>
</g>
<path d="M194.4 337.36C192.49 339.36 190.16 347.57 190.16 347.57C201.72 353.57 232.27 373.25 232.27 373.25L233.81 374.11C232.04 381.22 229.21 387.79 224.65 393.17L224.08 392.98C224.08 392.98 161.02 369.15 160.46 364.27C147.7 354.27 154.84 334.99 154.84 334.99L162.25 328.88C177.1 328.88 196.38 335.27 194.4 337.36Z" fill="#F1A944"/>
<path d="M297.1 350.12C316.3 343.47 310.89 365.23 310.89 365.23C310.89 365.23 315.22 399.85 309.33 399.96C303.44 400.07 292.25 370.09 292.25 370.09L287.08 370.8C288.68 363.95 288.19 356.8 286.51 349.65C293.27 349.94 297.1 350.12 297.1 350.12Z" fill="white" stroke="black" stroke-linecap="round" stroke-linejoin="round"/>
<path d="M242.1 377.8C262.4 379.8 248.2 397.21 248.2 397.21C248.2 397.21 237.39 430.31 231.98 427.96C226.57 425.61 229.18 393.84 229.18 393.84L224.18 392.33C228.55 386.8 231.18 380.13 232.68 372.97L242.1 377.8Z" fill="white" stroke="black" stroke-linecap="round" stroke-linejoin="round"/>
<path d="M227.46 414.58C227.64 425.09 230.33 429.47 230.33 429.47C230.33 429.47 231.76 429.58 238.49 417.99C235.29 415.668 231.412 414.47 227.46 414.58Z" fill="white" stroke="black" stroke-linecap="round" stroke-linejoin="round"/>
<path d="M240.52 376.49C241.71 390.6 228.45 401.02 228.45 401.02C227.745 405.505 227.411 410.04 227.45 414.58C231.392 414.476 235.258 415.675 238.45 417.99C240.19 414.99 242.27 411.26 244.77 406.52C257 383.38 251.14 379.64 251.14 379.64C247.772 378.08 244.194 377.019 240.52 376.49Z" fill="#3D2665" stroke="black" stroke-linecap="round" stroke-linejoin="round"/>
<path d="M251.18 379.64C252.405 380.28 253.594 380.987 254.74 381.76C254.74 381.76 254.1 389.68 245.84 408.43C236.62 429.37 232.73 430.88 232.73 430.88C231.847 430.569 231.032 430.09 230.33 429.47C240.824 414.575 247.939 397.569 251.18 379.64Z" fill="white" stroke="black" stroke-linecap="round" stroke-linejoin="round"/>
<path d="M236.65 408.74C236.63 408.777 236.603 408.809 236.571 408.835C236.538 408.861 236.501 408.88 236.461 408.891C236.42 408.903 236.378 408.906 236.337 408.9C236.296 408.895 236.256 408.881 236.22 408.86C234.949 408.1 233.493 407.704 232.012 407.714C230.53 407.725 229.081 408.142 227.82 408.92C227.785 408.945 227.746 408.962 227.705 408.972C227.663 408.981 227.62 408.982 227.578 408.975C227.536 408.967 227.496 408.951 227.461 408.928C227.425 408.905 227.394 408.875 227.37 408.84C227.346 408.807 227.329 408.769 227.32 408.729C227.31 408.689 227.31 408.648 227.317 408.608C227.325 408.567 227.34 408.529 227.363 408.495C227.386 408.461 227.416 408.432 227.45 408.41C228.815 407.58 230.379 407.132 231.976 407.115C233.574 407.097 235.147 407.51 236.53 408.31C236.6 408.354 236.652 408.422 236.674 408.502C236.696 408.581 236.688 408.666 236.65 408.74Z" fill="#1C1D27"/>
<path d="M236.57 403.87C236.535 403.947 236.471 404.006 236.393 404.036C236.314 404.066 236.227 404.064 236.15 404.03C231.04 401.78 227.8 403.96 227.77 403.98C227.7 404.028 227.615 404.048 227.531 404.035C227.447 404.022 227.372 403.977 227.32 403.91C227.296 403.876 227.278 403.838 227.269 403.797C227.26 403.756 227.259 403.714 227.266 403.673C227.274 403.632 227.289 403.593 227.312 403.558C227.335 403.523 227.365 403.493 227.4 403.47C227.54 403.37 230.94 401.05 236.4 403.47C236.473 403.503 236.532 403.563 236.563 403.637C236.595 403.711 236.597 403.794 236.57 403.87Z" fill="#1C1D27"/>
<path d="M230.68 403.1C230.657 403.158 230.617 403.207 230.565 403.241C230.513 403.275 230.452 403.292 230.39 403.29C229.85 403.29 225.12 403.2 223.99 401.56C223.852 401.354 223.769 401.117 223.748 400.871C223.727 400.624 223.769 400.376 223.87 400.15C223.942 399.924 224.072 399.721 224.248 399.561C224.424 399.401 224.638 399.29 224.87 399.24C226.78 398.88 230.2 402.36 230.58 402.76C230.623 402.804 230.651 402.86 230.662 402.921C230.673 402.981 230.665 403.044 230.64 403.1H230.68ZM224.48 400.34C224.414 400.471 224.385 400.617 224.395 400.763C224.406 400.909 224.456 401.05 224.54 401.17C225.21 402.17 227.96 402.5 229.62 402.6C228.38 401.42 226.18 399.6 225.05 399.82C224.912 399.839 224.782 399.898 224.677 399.991C224.572 400.083 224.496 400.205 224.46 400.34H224.48Z" fill="#1C1D27"/>
<path d="M230.75 403.13C230.727 403.183 230.689 403.229 230.642 403.263C230.594 403.296 230.538 403.316 230.48 403.32C230.418 403.324 230.355 403.31 230.301 403.28C230.246 403.25 230.2 403.205 230.17 403.15C229.93 402.67 227.85 398.45 228.84 396.73C228.964 396.514 229.141 396.333 229.355 396.205C229.568 396.077 229.811 396.007 230.06 396C230.301 395.964 230.547 395.992 230.774 396.081C231.001 396.171 231.199 396.319 231.35 396.51C232.54 398.04 230.94 402.6 230.76 403.11L230.75 403.13ZM229.35 397.13C228.87 398.22 229.76 400.69 230.41 402.13C230.91 400.51 231.55 397.77 230.85 396.86C230.763 396.754 230.65 396.673 230.522 396.626C230.394 396.579 230.255 396.566 230.12 396.59C229.975 396.589 229.832 396.627 229.705 396.699C229.579 396.771 229.474 396.875 229.4 397C229.38 397.042 229.364 397.085 229.35 397.13Z" fill="#1C1D27"/>
<path d="M217.37 234.27L250.11 243.62C254.21 252 259.66 273.54 254.5 293.93C251.62 305.3 248.29 317.32 244.77 329.4C230.09 331.7 215.41 334.48 202.21 341.08L202.63 338.33L207.78 305.12" fill="#F1A944"/>
<path d="M207.78 305.16L193.78 339.35L187.96 353.56C176.15 350.93 164.35 348.26 152.66 345.36C152.82 344.56 152.98 343.77 153.13 342.98C159.13 312.82 164.75 284.42 165.66 280.3C170.91 256.41 191.45 226.92 191.45 226.92L217.37 234.27" fill="#F1A944"/>
<path d="M244.77 329.44C243.97 332.167 243.167 334.897 242.36 337.63C241.553 340.363 240.76 343.007 239.98 345.56C252.98 345.79 284.75 349.56 284.75 349.56L286.51 349.64C288.19 356.79 288.68 363.94 287.08 370.79L286.49 370.87C286.49 370.87 217.2 378.87 214.49 374.72C199.38 368.99 200.27 353.64 200.27 353.64L202.22 341.11C215.46 334.52 230.09 331.74 244.77 329.44Z" fill="#F1A944"/>
<path d="M227.76 295.05C212.975 292.901 198.46 289.186 184.46 283.97" stroke="white" stroke-width="0.47" stroke-linecap="round" stroke-linejoin="round"/>
<path d="M207.58 306.47L209.37 291.54" stroke="white" stroke-width="0.47" stroke-linecap="round" stroke-linejoin="round"/>
<path d="M287.53 355.01C287.53 355.01 240.46 356.4 233.17 350.79C225.88 345.18 247.17 302.18 247.91 286.56C248.272 276.219 247.602 265.868 245.91 255.66" stroke="white" stroke-width="0.47" stroke-linecap="round" stroke-linejoin="round"/>
<path d="M208.8 282.19L216.18 246.89" stroke="white" stroke-width="0.47" stroke-linecap="round" stroke-linejoin="round"/>
<path d="M247.8 272.75C247.8 272.75 231.99 263.69 233.14 250.97" stroke="white" stroke-width="0.47" stroke-linecap="round" stroke-linejoin="round"/>
<path d="M196.83 241.76C196.83 241.76 189.19 255.55 175.46 254.27" stroke="white" stroke-width="0.47" stroke-linecap="round" stroke-linejoin="round"/>
<path d="M209.35 279.56C209.35 279.56 204.03 281.78 206.75 268.01C209.47 254.24 210.99 246.96 210.99 246.96" stroke="white" stroke-width="0.47" stroke-linecap="round" stroke-linejoin="round"/>
<path d="M227.76 295.05C212.975 292.901 198.46 289.186 184.46 283.97" stroke="white" stroke-width="0.47" stroke-linecap="round" stroke-linejoin="round"/>
<path d="M207.58 306.47L209.37 291.54" stroke="white" stroke-width="0.47" stroke-linecap="round" stroke-linejoin="round"/>
<path d="M287.53 355.01C287.53 355.01 240.46 356.4 233.17 350.79C225.88 345.18 247.17 302.18 247.91 286.56C248.272 276.219 247.602 265.868 245.91 255.66" stroke="white" stroke-width="0.47" stroke-linecap="round" stroke-linejoin="round"/>
<path d="M208.8 282.19L216.18 246.89" stroke="white" stroke-width="0.47" stroke-linecap="round" stroke-linejoin="round"/>
<path d="M247.8 272.75C247.8 272.75 231.99 263.69 233.14 250.97" stroke="white" stroke-width="0.47" stroke-linecap="round" stroke-linejoin="round"/>
<path d="M196.83 241.76C196.83 241.76 189.19 255.55 175.46 254.27" stroke="white" stroke-width="0.47" stroke-linecap="round" stroke-linejoin="round"/>
<path d="M209.35 279.56C209.35 279.56 204.03 281.78 206.75 268.01C209.47 254.24 210.99 246.96 210.99 246.96" stroke="white" stroke-width="0.47" stroke-linecap="round" stroke-linejoin="round"/>
<path d="M299.54 389.67C304.18 399.15 308.48 402.03 308.48 402.03C308.48 402.03 309.82 401.52 310.96 388.18C307.094 387.393 303.075 387.917 299.54 389.67Z" fill="white" stroke="black" stroke-linecap="round" stroke-linejoin="round"/>
<path d="M295.1 349.58C302.2 361.93 294.65 376.93 294.65 376.93C295.924 381.305 297.56 385.566 299.54 389.67C303.075 387.917 307.093 387.393 310.96 388.18C311.26 384.74 311.54 380.47 311.79 375.11C312.97 348.97 306.09 348.01 306.09 348.01C302.37 347.998 298.668 348.527 295.1 349.58Z" fill="#3D2665" stroke="black" stroke-linecap="round" stroke-linejoin="round"/>
<path d="M306.09 348.01C307.47 348.085 308.845 348.232 310.21 348.45C310.21 348.45 313.01 355.93 313.53 376.45C314.12 399.34 311.25 402.33 311.25 402.33C310.318 402.415 309.378 402.323 308.48 402.06C311.619 384.084 310.804 365.639 306.09 348.01Z" fill="white" stroke="black" stroke-linecap="round" stroke-linejoin="round"/>
<path d="M305.35 380.54C305.348 380.581 305.337 380.621 305.319 380.657C305.301 380.694 305.276 380.727 305.245 380.754C305.215 380.78 305.179 380.801 305.14 380.814C305.102 380.827 305.061 380.833 305.02 380.83C303.552 380.664 302.067 380.908 300.729 381.535C299.391 382.161 298.253 383.146 297.44 384.38C297.398 384.452 297.33 384.505 297.249 384.527C297.169 384.55 297.083 384.54 297.01 384.5C296.936 384.46 296.881 384.392 296.857 384.312C296.833 384.231 296.841 384.144 296.88 384.07C297.776 382.76 299.009 381.715 300.448 381.047C301.888 380.378 303.481 380.11 305.06 380.27C305.132 380.276 305.199 380.306 305.252 380.355C305.305 380.404 305.339 380.469 305.35 380.54Z" fill="#1C1D27"/>
<path d="M303.38 375.96C303.38 376.002 303.372 376.043 303.356 376.081C303.34 376.119 303.316 376.154 303.286 376.183C303.256 376.212 303.221 376.234 303.182 376.249C303.143 376.264 303.102 376.271 303.06 376.27C297.48 376.36 295.48 379.69 295.46 379.73C295.44 379.766 295.412 379.797 295.379 379.822C295.346 379.847 295.309 379.865 295.268 379.876C295.228 379.886 295.187 379.888 295.146 379.882C295.105 379.876 295.066 379.862 295.03 379.84C294.958 379.798 294.905 379.73 294.883 379.649C294.86 379.569 294.87 379.483 294.91 379.41C295 379.26 297.09 375.74 303.05 375.65C303.093 375.647 303.135 375.653 303.175 375.668C303.215 375.682 303.252 375.704 303.282 375.733C303.313 375.762 303.338 375.798 303.355 375.837C303.372 375.876 303.38 375.918 303.38 375.96Z" fill="#1C1D27"/>
<path d="M297.55 377.89C297.556 377.951 297.542 378.013 297.509 378.066C297.477 378.118 297.428 378.158 297.37 378.18C296.88 378.4 292.57 380.3 290.85 379.27C290.637 379.142 290.46 378.962 290.335 378.747C290.211 378.532 290.144 378.288 290.14 378.04C290.11 377.8 290.146 377.556 290.243 377.335C290.339 377.113 290.494 376.921 290.69 376.78C292.26 375.66 296.84 377.4 297.35 377.61C297.408 377.63 297.458 377.668 297.494 377.718C297.53 377.769 297.549 377.828 297.55 377.89ZM290.77 377.96V378.01C290.769 378.157 290.806 378.302 290.878 378.43C290.95 378.558 291.054 378.665 291.18 378.74C292.18 379.35 294.83 378.52 296.38 377.92C294.76 377.37 291.99 376.63 291.06 377.3C290.956 377.373 290.875 377.474 290.824 377.59C290.772 377.706 290.754 377.834 290.77 377.96Z" fill="#1C1D27"/>
<path d="M297.63 377.89C297.632 377.948 297.617 378.006 297.587 378.055C297.557 378.105 297.513 378.145 297.46 378.17C297.408 378.204 297.347 378.222 297.285 378.222C297.223 378.222 297.162 378.204 297.11 378.17C296.69 377.84 293.01 374.86 293.17 372.89C293.191 372.643 293.275 372.405 293.413 372.198C293.551 371.992 293.739 371.824 293.96 371.71C294.166 371.579 294.402 371.504 294.646 371.492C294.89 371.479 295.132 371.53 295.35 371.64C297.08 372.54 297.58 377.35 297.63 377.9V377.89ZM293.8 373.02C293.8 374.2 295.69 376.08 296.9 377.14C296.67 375.47 296.08 372.7 295.06 372.14C294.937 372.076 294.799 372.048 294.662 372.058C294.524 372.069 294.392 372.118 294.28 372.2C294.147 372.26 294.033 372.355 293.95 372.475C293.868 372.594 293.819 372.735 293.81 372.88C293.798 372.926 293.794 372.973 293.8 373.02Z" fill="#1C1D27"/>
<path d="M203.09 364.9C194.09 360.07 186.48 355.53 184.61 352.81C180.08 346.22 204.83 290.67 204.83 290.67" stroke="white" stroke-width="0.47" stroke-linecap="round" stroke-linejoin="round"/>
<path d="M230.99 378.88C230.99 378.88 228.63 377.78 224.99 376.01" stroke="white" stroke-width="0.47" stroke-linecap="round" stroke-linejoin="round"/>
<path d="M203.46 365.7C201.331 362.044 200.233 357.88 200.28 353.65L200.35 353.18" stroke="white" stroke-width="0.47" stroke-linecap="round" stroke-linejoin="round"/>
<path d="M232.05 375.69C222.51 376.13 217.75 375.79 214.48 374.69C209.882 373.053 205.995 369.872 203.48 365.69" stroke="white" stroke-width="0.47" stroke-linecap="round" stroke-linejoin="round"/>
<path d="M248.95 64.4C258.723 61.7563 269.134 62.9024 278.098 67.6088C287.062 72.3151 293.917 80.2342 297.29 89.78C300.21 98.04 300.36 106.98 300.47 115.78C300.544 120.56 300.607 125.337 300.66 130.11C300.71 133.77 300.77 137.51 302.02 140.95C304.18 146.95 309.6 151.17 315.21 154.21C320.82 157.25 326.9 159.49 332.03 163.28C336.661 166.77 340.324 171.383 342.674 176.683C345.024 181.983 345.983 187.796 345.46 193.57" stroke="#202020" stroke-miterlimit="10"/>
<path d="M259.57 63.42C273.34 61.34 287.41 69.18 295.14 80.76C302.87 92.34 304.93 106.99 303.49 120.84C303.001 124.07 302.78 127.334 302.83 130.6C303.42 140.6 311 149.39 320.26 153.28C323.39 154.6 326.72 155.44 329.78 156.92C333.685 158.86 337.034 161.757 339.515 165.342C341.997 168.927 343.529 173.082 343.97 177.42" stroke="#202020" stroke-miterlimit="10"/>
<path d="M139.46 177.76C135.46 174.76 131.37 171.43 127.4 168.06L136.92 152.64L122.92 164.17C118.288 160.124 114.018 155.68 110.16 150.89C110.16 150.89 114.47 129.18 134.07 117.89C153.67 106.6 181.83 106.46 194.62 76.38L284.39 73.97C289.551 78.0135 293.66 83.2433 296.368 89.2148C299.075 95.1864 300.3 101.723 299.94 108.27C298.78 130.88 298.58 146.4 315.19 155.07C340.19 168.58 340.39 185.49 343.42 199.61C343.42 199.61 327.16 212.52 304.54 214.99L299.03 198.1L298.72 217.89C298.72 217.89 257.6 225.58 215.82 215.28C174.04 204.98 161.82 193.81 161.82 193.81C161.82 193.81 153.28 188.21 142.82 180.39L147.82 170.82L139.46 177.76Z" fill="#040602"/>
<path d="M252.77 58.48C240.55 47.35 220.35 46.27 207.05 56.11C191.79 67.36 186.99 89.11 171.34 99.84C160.93 106.96 147.42 107.92 136.41 114.06C121.3 122.5 112.97 139.48 108.71 156.25" stroke="#202020" stroke-miterlimit="10"/>
<path d="M243.46 148.48L241.52 155.61C233.68 156.217 225.807 154.995 218.52 152.04L220.29 141.65L243.46 148.48Z" fill="black"/>
<path d="M241.54 155.61L238.61 166.44C238.61 166.44 236.22 172.1 227.23 170.44C217.14 168.59 216.75 162.44 216.75 162.44L218.51 152.04C225.806 155 233.69 156.222 241.54 155.61Z" fill="white" stroke="black" stroke-linecap="round" stroke-linejoin="round"/>
<path d="M214.26 72.99C214.26 72.99 205.01 85.99 199.56 107.1C195.31 123.55 204.29 143.1 224.04 149.55C242.6 155.66 264.19 153.13 276.92 128.16C289.65 103.19 286.76 79.96 264.25 67.86C241.74 55.76 223.46 57.83 214.26 72.99Z" fill="white" stroke="black" stroke-linecap="round" stroke-linejoin="round"/>
<path d="M202.84 103.61C199.26 101.79 190.65 98.85 187.13 110.06C183.2 122.61 194.25 127.76 201.87 123.52" fill="white"/>
<path d="M202.84 103.61C199.26 101.79 190.65 98.85 187.13 110.06C183.2 122.61 194.25 127.76 201.87 123.52" stroke="black" stroke-linecap="round" stroke-linejoin="round"/>
<path d="M199.69 120.68C199.648 120.67 199.61 120.649 199.58 120.62C199.518 120.571 199.478 120.499 199.468 120.42C199.459 120.342 199.481 120.262 199.53 120.2C199.58 120.14 204.53 113.96 200.46 109.45C199.889 108.733 199.176 108.141 198.365 107.713C197.554 107.284 196.664 107.028 195.75 106.96C193.765 107.011 191.864 107.77 190.39 109.1C190.331 109.142 190.259 109.162 190.187 109.155C190.115 109.148 190.048 109.115 189.998 109.063C189.948 109.011 189.919 108.942 189.915 108.87C189.912 108.798 189.935 108.727 189.98 108.67C191.558 107.217 193.615 106.395 195.76 106.36C196.758 106.425 197.732 106.698 198.619 107.162C199.505 107.625 200.286 108.268 200.91 109.05C205.29 113.94 200.05 120.51 200 120.58C199.962 120.624 199.914 120.656 199.859 120.674C199.804 120.692 199.746 120.694 199.69 120.68Z" fill="black"/>
<path d="M193.99 113.13C193.944 113.119 193.902 113.097 193.867 113.066C193.832 113.034 193.806 112.994 193.79 112.95C193.76 112.877 193.76 112.795 193.79 112.722C193.82 112.649 193.877 112.591 193.95 112.56C194.01 112.56 199.82 110.23 202.51 114.8C202.547 114.869 202.557 114.951 202.536 115.027C202.516 115.103 202.467 115.168 202.4 115.21C202.367 115.231 202.33 115.246 202.291 115.253C202.252 115.259 202.212 115.258 202.173 115.248C202.135 115.239 202.099 115.222 202.067 115.198C202.036 115.174 202.01 115.144 201.99 115.11C199.56 110.99 194.23 113.11 194.18 113.11C194.12 113.136 194.054 113.143 193.99 113.13Z" fill="black"/>
<path d="M231.58 130.69C236.02 131.84 237.49 128.28 237.51 128.24C237.524 128.203 237.532 128.164 237.531 128.124C237.53 128.085 237.522 128.046 237.506 128.01C237.49 127.973 237.467 127.941 237.439 127.913C237.41 127.886 237.377 127.864 237.34 127.85C237.303 127.835 237.264 127.828 237.224 127.829C237.185 127.83 237.146 127.838 237.11 127.854C237.073 127.87 237.041 127.893 237.013 127.921C236.986 127.95 236.964 127.983 236.95 128.02C236.89 128.16 235.48 131.52 230.95 129.86C230.874 129.839 230.793 129.845 230.722 129.878C230.65 129.911 230.593 129.968 230.56 130.04C230.546 130.077 230.539 130.117 230.54 130.157C230.542 130.197 230.551 130.237 230.568 130.273C230.584 130.309 230.608 130.342 230.638 130.369C230.667 130.396 230.702 130.417 230.74 130.43C231.015 130.531 231.295 130.618 231.58 130.69Z" fill="black"/>
<path d="M275.82 122.46C279.82 122.62 288.76 124.24 286.41 135.72C283.41 150.44 267.93 147.23 265.53 136.8" fill="white"/>
<path d="M275.82 122.46C279.82 122.62 288.76 124.24 286.41 135.72C283.41 150.44 267.93 147.23 265.53 136.8" stroke="black" stroke-linecap="round" stroke-linejoin="round"/>
<path d="M264.46 113.54C264.46 113.54 268.02 111.71 262.73 106.91C257.44 102.11 255.1 102.26 253.73 103.62C252.36 104.98 253.28 107.41 256.31 110.05C259.88 113.21 262.46 114.61 264.46 113.54Z" fill="black"/>
<path d="M214.46 100.61C214.46 100.61 212.23 97.29 219.19 95.61C226.15 93.93 228.11 95.24 228.69 97.11C229.22 98.81 227.25 100.65 223.32 101.49C218.56 102.53 215.6 102.5 214.46 100.61Z" fill="black"/>
<path d="M270.28 138.92C270.32 138.93 270.361 138.93 270.4 138.92C270.44 138.914 270.478 138.9 270.512 138.879C270.546 138.858 270.576 138.83 270.599 138.798C270.622 138.765 270.639 138.728 270.648 138.689C270.656 138.65 270.657 138.609 270.65 138.57C270.65 138.49 269.33 130.7 275.05 128.71C275.899 128.363 276.81 128.193 277.727 128.212C278.643 128.231 279.547 128.438 280.38 128.82C282.09 129.826 283.381 131.412 284.02 133.29C284.031 133.328 284.05 133.364 284.076 133.395C284.101 133.426 284.133 133.451 284.168 133.47C284.203 133.489 284.242 133.5 284.282 133.503C284.322 133.507 284.362 133.502 284.4 133.49C284.476 133.465 284.539 133.411 284.577 133.34C284.614 133.269 284.622 133.187 284.6 133.11C283.912 131.077 282.508 129.364 280.65 128.29C279.746 127.866 278.763 127.634 277.765 127.61C276.766 127.586 275.774 127.77 274.85 128.15C268.65 130.3 270.04 138.59 270.05 138.67C270.062 138.729 270.09 138.783 270.13 138.827C270.171 138.871 270.223 138.903 270.28 138.92Z" fill="black"/>
<path d="M278.92 135.08C278.965 135.093 279.012 135.095 279.058 135.084C279.104 135.074 279.146 135.052 279.18 135.02C279.235 134.964 279.266 134.889 279.266 134.81C279.266 134.731 279.235 134.656 279.18 134.6C279.18 134.55 275.18 129.72 270.61 132.42C270.576 132.44 270.546 132.466 270.522 132.497C270.498 132.529 270.481 132.565 270.472 132.603C270.462 132.642 270.461 132.682 270.467 132.721C270.474 132.76 270.489 132.797 270.51 132.83C270.552 132.897 270.617 132.946 270.693 132.966C270.769 132.987 270.851 132.977 270.92 132.94C275.04 130.5 278.67 134.94 278.71 134.94C278.731 134.979 278.761 135.012 278.798 135.036C278.834 135.06 278.876 135.076 278.92 135.08Z" fill="black"/>
<path d="M232.4 123.41C232.469 123.434 232.544 123.433 232.611 123.406C232.679 123.379 232.734 123.328 232.767 123.263C232.8 123.198 232.809 123.124 232.791 123.053C232.773 122.983 232.73 122.921 232.67 122.88C231.426 121.819 230.531 120.407 230.1 118.83C229.71 116.99 230.6 114.59 231.96 113.83C232.389 113.606 232.88 113.535 233.355 113.628C233.829 113.72 234.258 113.972 234.57 114.34L234.7 114.46C237.7 117.46 239.6 116.95 240.63 115.99C242.5 114.22 245.63 97.24 246.02 95.31C246.027 95.2713 246.027 95.2315 246.019 95.1929C246.011 95.1544 245.995 95.1178 245.973 95.0853C245.95 95.0528 245.922 95.025 245.889 95.0035C245.856 94.982 245.819 94.9672 245.78 94.96C245.741 94.9513 245.701 94.9507 245.662 94.9583C245.623 94.9658 245.586 94.9813 245.553 95.0039C245.52 95.0264 245.492 95.0554 245.471 95.0892C245.45 95.1229 245.436 95.1606 245.43 95.2C244.43 100.39 241.68 114.2 240.21 115.55C239.01 116.69 237.29 116.18 235.12 114.04L234.97 113.89C234.563 113.437 234.016 113.133 233.415 113.028C232.815 112.923 232.197 113.022 231.66 113.31C230.08 114.22 229.07 116.87 229.51 118.98C229.962 120.695 230.933 122.228 232.29 123.37C232.323 123.392 232.361 123.406 232.4 123.41Z" fill="black"/>
<path d="M247.23 119.96C246.75 121.96 247.68 123.89 249.31 124.28C250.94 124.67 252.67 123.38 253.15 121.39C253.63 119.4 252.7 117.46 251.06 117.07C249.42 116.68 247.71 117.97 247.23 119.96Z" fill="#040602"/>
<path d="M224.58 112.95C224.1 114.95 222.38 116.24 220.75 115.84C219.12 115.44 218.18 113.51 218.66 111.52C219.14 109.53 220.86 108.23 222.5 108.63C224.14 109.03 225.07 110.96 224.58 112.95Z" fill="#040602"/>
<path d="M256.46 61.16C256.46 61.16 312.77 66.52 285.46 125.67C285.46 125.67 283.26 122.95 275.88 121.83C268.5 120.71 265.24 94.9 266.31 86.75C266.31 86.75 224.03 108.92 198.76 102.88C194.88 101.96 191.76 101.94 190.66 103.01C189.56 104.08 186.83 73.51 205.5 61.32C228.4 46.34 246.35 54.39 256.46 61.16Z" fill="#040602"/>
<path d="M253.35 58.46C245.2 54.06 231.83 51.52 222.35 53.04C211.18 54.83 201.35 62.56 196.01 72.53C194.16 75.99 192.78 79.72 190.55 82.95C186.7 88.53 180.55 92.18 174.26 94.63C167.97 97.08 161.26 98.5 154.82 100.63C135.34 107.1 117.56 121.39 111.25 140.93" stroke="#202020" stroke-miterlimit="10"/>
<path d="M257.92 64.9C261.139 63.0567 263.652 60.1922 265.06 56.76C265.156 56.5437 265.186 56.3039 265.146 56.0706C265.106 55.8374 264.998 55.6211 264.836 55.4491C264.673 55.277 264.464 55.1568 264.233 55.1036C264.003 55.0504 263.761 55.0665 263.54 55.15C260.867 56.1845 258.71 58.2332 257.54 60.85C258.207 58.1433 258.873 55.4333 259.54 52.72C259.81 51.62 260.03 50.29 259.24 49.47C258.884 49.1627 258.44 48.976 257.971 48.9364C257.502 48.8969 257.033 49.0067 256.63 49.25C255.832 49.7384 255.177 50.4282 254.73 51.25C252.634 54.6916 251.627 58.6861 251.84 62.71" fill="black"/>
<path d="M270.46 83.53C259.456 93.3459 245.666 99.4877 231.009 101.101C216.351 102.714 201.556 99.718 188.68 92.53" stroke="#202020" stroke-miterlimit="10"/>
<path d="M300.63 212.66C300.12 209.41 297.97 206.13 291.63 199.25C269.79 172.73 257.06 166.91 250.68 164.5C250.68 164.5 230.14 178.15 253.63 205.19C256.97 208.63 277.28 224.64 285.87 231.04" fill="white"/>
<path d="M300.63 212.66C300.12 209.41 297.97 206.13 291.63 199.25C269.79 172.73 257.06 166.91 250.68 164.5C250.68 164.5 230.14 178.15 253.63 205.19C256.97 208.63 277.28 224.64 285.87 231.04" stroke="black" stroke-linecap="round" stroke-linejoin="round"/>
<path d="M277.1 223.7C280.45 248.99 282.81 268.91 282.81 268.91C282.81 268.91 276.46 280.5 278.46 283.45C280.46 286.4 283.78 279.51 283.78 279.51C283.78 279.51 281.23 296.35 284.12 296.34C287.01 296.33 288.71 283.34 288.71 283.34C288.71 283.34 288.53 299.6 292.34 298.48C294.56 297.73 293.26 283.93 293.26 283.93C293.26 283.93 295.53 297.66 297.93 297.01C300.33 296.36 297.59 283.27 297.59 283.27C297.59 283.27 300.65 293.89 303.07 293.05C305.49 292.21 302.46 276.57 300.55 269.27C300.55 269.27 302.34 239.09 300.63 212.62" fill="white"/>
<path d="M277.1 223.7C280.45 248.99 282.81 268.91 282.81 268.91C282.81 268.91 276.46 280.5 278.46 283.45C280.46 286.4 283.78 279.51 283.78 279.51C283.78 279.51 281.23 296.35 284.12 296.34C287.01 296.33 288.71 283.34 288.71 283.34C288.71 283.34 288.53 299.6 292.34 298.48C294.56 297.73 293.26 283.93 293.26 283.93C293.26 283.93 295.53 297.66 297.93 297.01C300.33 296.36 297.59 283.27 297.59 283.27C297.59 283.27 300.65 293.89 303.07 293.05C305.49 292.21 302.46 276.57 300.55 269.27C300.55 269.27 302.34 239.09 300.63 212.62" stroke="black" stroke-linecap="round" stroke-linejoin="round"/>
<path d="M133.58 124.89C133.484 122.976 133.148 121.081 132.58 119.25C132.132 118.141 131.751 117.005 131.44 115.85C130.946 113.932 130.764 111.946 130.9 109.97C130.98 108.14 131.19 105.97 132.31 104.57C138.53 96.89 147.17 106.07 147.17 106.07C147.17 106.07 146.29 91.63 149.24 92.22C152.19 92.81 151.4 110.95 151.4 110.95C151.51 116.49 150.03 126.22 150.03 126.22" fill="white"/>
<path d="M133.58 124.89C133.484 122.976 133.148 121.081 132.58 119.25C132.132 118.141 131.751 117.005 131.44 115.85C130.946 113.932 130.764 111.946 130.9 109.97C130.98 108.14 131.19 105.97 132.31 104.57C138.53 96.89 147.17 106.07 147.17 106.07C147.17 106.07 146.29 91.63 149.24 92.22C152.19 92.81 151.4 110.95 151.4 110.95C151.51 116.49 150.03 126.22 150.03 126.22" stroke="black" stroke-linecap="round" stroke-linejoin="round"/>
<path d="M147.25 109.96C147.25 109.96 141.9 104.03 140.81 107.53C139.72 111.03 149.12 122.78 149.12 122.78" stroke="black" stroke-linecap="round" stroke-linejoin="round"/>
<path d="M142.03 112.12C139.826 112.871 137.896 114.264 136.49 116.12" stroke="black" stroke-linecap="round" stroke-linejoin="round"/>
<path d="M135.71 102.27C134.774 103.4 134.153 104.757 133.911 106.204C133.668 107.651 133.813 109.137 134.33 110.51C135.25 112.81 137.33 112.98 137.75 111.08" stroke="black" stroke-linecap="round" stroke-linejoin="round"/>
<path d="M139.33 101.89C138.043 102.587 137.062 103.738 136.576 105.118C136.09 106.499 136.134 108.01 136.7 109.36C137.7 112.36 141.02 111.21 139.79 107.64C138.94 105.15 141.67 102.78 141.67 102.78" stroke="black" stroke-linecap="round" stroke-linejoin="round"/>
<path d="M134.95 111.78C134.95 111.78 134.81 113.37 133.51 113.33C132.21 113.29 130.89 110.49 131.45 107.56" stroke="black" stroke-linecap="round" stroke-linejoin="round"/>
<path d="M150.01 126.27C151.32 136.49 158.49 155.64 158.44 164.27C166.14 163.45 183.44 161.79 197.38 161.76C197.51 161.68 212.66 161.21 212.76 161.2L186.76 192.71C168.99 193.3 139.6 195.4 135.7 175.71C135.7 175.71 130.8 150.92 133.56 124.93" fill="white"/>
<path d="M150.01 126.27C151.32 136.49 158.49 155.64 158.44 164.27C166.14 163.45 183.44 161.79 197.38 161.76C197.51 161.68 212.66 161.21 212.76 161.2L186.76 192.71C168.99 193.3 139.6 195.4 135.7 175.71C135.7 175.71 130.8 150.92 133.56 124.93" stroke="black" stroke-linecap="round" stroke-linejoin="round"/>
<path d="M242.61 163.65C242.61 163.65 229.26 166.95 212.76 161.18C212.76 161.18 208.21 160.82 205.53 160.8C202.85 160.78 195.09 164.93 184.44 188.9C180.05 198.78 168.81 241.9 168.81 241.9C168.81 241.9 230.81 263.9 261.04 252.27C259.98 218.81 253.6 205.21 253.6 205.21C250.798 197.942 248.877 190.365 247.88 182.64C246.3 171.4 250.65 164.52 250.65 164.52C250.65 164.52 252.21 163.51 242.61 163.65Z" fill="#3D2665" stroke="black" stroke-linecap="round" stroke-linejoin="round"/>
<path d="M217.05 232.34C217.101 232.342 217.151 232.331 217.197 232.309C217.242 232.286 217.281 232.252 217.31 232.21C217.332 232.179 217.348 232.144 217.356 232.106C217.364 232.069 217.364 232.03 217.356 231.993C217.349 231.955 217.334 231.92 217.312 231.888C217.29 231.857 217.262 231.83 217.23 231.81C207.767 225.293 200.796 215.755 197.46 204.76C197.437 204.687 197.386 204.627 197.319 204.591C197.252 204.556 197.173 204.548 197.1 204.57C197.063 204.58 197.029 204.598 196.999 204.622C196.97 204.646 196.945 204.675 196.927 204.709C196.91 204.743 196.899 204.78 196.896 204.818C196.893 204.856 196.898 204.894 196.91 204.93C200.279 216.055 207.332 225.704 216.91 232.29L217.05 232.34Z" fill="black"/>
<path d="M206.12 241.5C206.155 241.505 206.192 241.502 206.226 241.492C206.261 241.482 206.293 241.464 206.32 241.44C206.374 241.386 206.405 241.312 206.405 241.235C206.405 241.158 206.374 241.084 206.32 241.03C200.795 234.123 196.996 225.999 195.24 217.33C195.233 217.293 195.218 217.257 195.197 217.225C195.176 217.193 195.149 217.166 195.117 217.145C195.086 217.123 195.05 217.108 195.013 217.101C194.976 217.093 194.937 217.093 194.9 217.1C194.825 217.117 194.76 217.161 194.718 217.225C194.675 217.288 194.658 217.365 194.67 217.44C196.436 226.219 200.276 234.448 205.87 241.44C205.903 241.47 205.944 241.491 205.987 241.502C206.031 241.512 206.076 241.512 206.12 241.5Z" fill="black"/>
</g>
<defs>
<clipPath id="clip0_137_172">
<rect width="441.53" height="433.57" fill="white"/>
</clipPath>
</defs>
</svg>
