<svg width="308" height="434" viewBox="0 0 308 434" fill="none" xmlns="http://www.w3.org/2000/svg">
<g clip-path="url(#clip0_137_635)">
<path d="M196.807 137.108C201.741 139.022 207.131 139.436 212.3 138.299C217.469 137.162 222.188 134.525 225.865 130.716C229.542 126.908 232.014 122.099 232.971 116.891C233.928 111.684 233.328 106.309 231.246 101.441C229.163 96.5737 225.691 92.429 221.264 89.5266C216.838 86.6243 211.654 85.0935 206.361 85.126C201.069 85.1585 195.904 86.7528 191.513 89.7092C187.122 92.6656 183.701 96.8527 181.679 101.746C179.001 108.442 179.09 115.928 181.927 122.559C184.764 129.19 190.116 134.423 196.807 137.108Z" fill="#040504"/>
<path d="M183.22 112.151C189.256 118.474 200.537 117.49 208.425 109.948C216.313 102.407 217.815 91.185 211.779 84.8745C205.744 78.564 194.462 79.5358 186.575 87.0773C178.687 94.6188 177.184 105.84 183.22 112.151Z" fill="white" stroke="black" stroke-width="1.12" stroke-linecap="round" stroke-linejoin="round"/>
<path d="M233.927 212.07C242.32 196.222 238.499 181.372 232.567 159.11C230.508 151.336 221.455 150.195 214.331 146.593C208.114 143.444 204.086 144.416 204.086 144.416L200.835 175.515V176.124C201.56 186.491 203.749 208.234 203.749 208.234" fill="white"/>
<path d="M233.927 212.07C242.32 196.222 238.499 181.372 232.567 159.11C230.508 151.336 221.455 150.195 214.331 146.593C208.114 143.444 204.086 144.416 204.086 144.416L200.835 175.515V176.124C201.56 186.491 203.749 208.234 203.749 208.234" stroke="black" stroke-width="1.12" stroke-linecap="round" stroke-linejoin="round"/>
<path d="M153.353 408.771L153.236 399.182L152.796 363.574L120.817 364.273L123.964 398.858L124.534 405.039C124.534 405.039 87.3489 419.565 87.867 426.886C88.3851 434.207 134.689 426.886 134.689 426.886C134.689 426.886 162.989 432.264 153.353 408.771Z" fill="white" stroke="black" stroke-width="1.12" stroke-linecap="round" stroke-linejoin="round"/>
<path d="M155.606 419.954C155.606 421.573 155.515 423.297 155.321 425.137C155.321 425.137 146.099 429.024 120.35 430.903C91.5839 432.976 87.6335 429.607 87.6335 429.607C87.467 428.454 87.5242 427.279 87.8019 426.148C110.586 428.98 133.712 426.868 155.606 419.954Z" fill="black"/>
<path d="M132.797 427.158C132.797 427.158 127.098 411.972 120.312 406.607L113.836 409.678C113.836 409.678 122.073 419.539 123.355 428.143L132.797 427.158Z" fill="black"/>
<path d="M116.866 428.299C116.866 428.299 114.12 417.932 107.321 412.606L101.389 415.6C104.633 419.516 106.723 424.259 107.424 429.296L116.866 428.299Z" fill="black"/>
<path d="M239.367 396.526L237.929 391.472L231.971 335.52L201.288 344.59L210.652 400.517L210.419 400.685C207.647 402.758 178.661 424.593 180.966 431.188C183.388 438.121 226.143 418.917 226.143 418.917C226.143 418.917 254.78 416.675 239.367 396.526Z" fill="white" stroke="black" stroke-width="1.12" stroke-linecap="round" stroke-linejoin="round"/>
<path d="M244.418 406.724C244.861 408.389 245.219 410.076 245.493 411.777C245.493 411.777 237.605 417.971 213.255 426.484C186.056 436.008 181.329 433.767 181.329 433.767C180.868 432.697 180.617 431.549 180.59 430.385C203.32 427.182 225.091 419.112 244.418 406.724Z" fill="black"/>
<path d="M224.317 419.591C224.317 419.591 214.862 406.426 206.896 403.018L201.457 407.682C201.457 407.682 211.974 415.043 215.471 423.012L224.317 419.591Z" fill="black"/>
<path d="M209.241 424.916C209.241 424.916 203.892 415.665 195.939 412.257L190.991 416.688C195.147 419.627 198.403 423.665 200.394 428.35L209.241 424.916Z" fill="black"/>
<path d="M205.782 217.68L168.351 226.246L125.687 225.118C125.687 225.118 103.267 294.054 105.222 387.326C105.222 387.326 128.756 395.372 164.867 387.248C164.867 387.248 173.376 313.465 172.444 273.983C172.444 273.983 181.083 385.861 189.372 386.794C225.314 390.85 248.006 375.884 248.006 375.884C233.033 262.8 205.782 217.68 205.782 217.68Z" fill="#F1A944"/>
<path d="M206.469 232.634C206.469 232.634 225.198 257.111 243.926 378.125" stroke="white" stroke-linecap="round" stroke-linejoin="round"/>
<path d="M151.552 273.36C151.552 273.36 168.636 275.952 182.948 273.36" stroke="white" stroke-linecap="round" stroke-linejoin="round"/>
<path d="M171.654 274.462C167.514 277.119 163.118 279.354 158.533 281.135" stroke="white" stroke-linecap="round" stroke-linejoin="round"/>
<path d="M116.75 139.065C104.122 150.247 88.0741 165.33 88.0741 165.33L73.5678 123.1L73.6455 120.444C68.0259 121.162 62.4581 122.24 56.9762 123.671C56.6783 135.41 56.1602 188.084 70.8479 201.418C87.4006 216.41 128.303 174.206 128.303 174.206L116.75 139.065Z" fill="white" stroke="black" stroke-width="1.12" stroke-linecap="round" stroke-linejoin="round"/>
<path d="M153.443 138.157C153.443 138.157 161.214 146.386 151.176 161.313C145.196 170.235 137.108 177.543 127.63 182.59C127.63 182.59 104.938 164.605 101.479 151.569L103.914 148.394C103.914 148.394 130.44 111.335 153.443 138.157Z" fill="white" stroke="black" stroke-width="1.12" stroke-linecap="round" stroke-linejoin="round"/>
<path d="M133.419 128.335C133.419 128.335 165.592 123.295 195.343 125.459C195.343 125.459 215.691 203.517 215.989 217.356C215.989 217.356 182.43 241.238 122.384 227.386C122.384 227.386 123.861 206.29 126.27 182.124" fill="white"/>
<path d="M133.419 128.335C133.419 128.335 165.592 123.295 195.343 125.459C195.343 125.459 215.691 203.517 215.989 217.356C215.989 217.356 182.43 241.238 122.384 227.386C122.384 227.386 123.861 206.29 126.27 182.124" stroke="black" stroke-width="1.12" stroke-linecap="round" stroke-linejoin="round"/>
<path d="M158.935 127.882C158.935 127.882 147.019 127.312 139.235 129.178C139.235 129.178 141.657 138.054 155.179 140.555C157.357 140.915 159.572 140.998 161.771 140.801C168.908 140.283 177.896 138.598 181.445 128.4C181.394 128.413 170.682 128.037 158.935 127.882Z" fill="white" stroke="black" stroke-width="1.12" stroke-linecap="round" stroke-linejoin="round"/>
<path d="M203.49 185.92C216.74 184.834 229.132 178.923 238.318 169.308C238.318 169.308 225.366 123.139 194.592 125.977" fill="white"/>
<path d="M203.49 185.92C216.74 184.834 229.132 178.923 238.318 169.308C238.318 169.308 225.366 123.139 194.592 125.977" stroke="black" stroke-width="1.12" stroke-linecap="round" stroke-linejoin="round"/>
<path d="M122.41 224.094C122.41 224.094 174.853 236.379 212.349 215.542" stroke="black" stroke-width="0.43" stroke-linecap="round" stroke-linejoin="round"/>
<path d="M146.721 213.91C164.01 201.393 178.986 185.958 190.978 168.298" stroke="black" stroke-width="0.43" stroke-linecap="round" stroke-linejoin="round"/>
<path d="M169.167 219.391C178.782 211.484 186.452 201.474 191.587 190.132" stroke="black" stroke-width="0.43" stroke-linecap="round" stroke-linejoin="round"/>
<path d="M194.592 125.977C194.592 125.977 187.714 150.144 203.49 185.92" stroke="black" stroke-width="0.43" stroke-linecap="round" stroke-linejoin="round"/>
<path d="M133.419 128.335C133.419 128.335 126.516 145.854 125.997 184.858" stroke="black" stroke-width="0.43" stroke-linecap="round" stroke-linejoin="round"/>
<path d="M145.27 130.551L144.61 114.898C155.257 119.389 166.939 120.847 178.363 119.109L176.446 131.367" fill="white"/>
<path d="M145.27 130.551L144.61 114.898C155.257 119.389 166.939 120.847 178.363 119.109L176.446 131.367" stroke="black" stroke-width="1.12" stroke-linecap="round" stroke-linejoin="round"/>
<path d="M180.953 104.843L178.363 119.096C166.93 120.838 155.239 119.381 144.584 114.885L144.234 101.707L180.953 104.843Z" fill="black" stroke="black" stroke-miterlimit="10"/>
<path d="M54.5539 136.447C54.1561 133.23 53.2098 130.105 51.7562 127.208C51.1993 124.772 50.1372 123.45 50.0207 118.785C49.8005 116.872 50.1568 114.936 51.0439 113.226C56.7817 105.011 66.1719 113.654 66.1719 113.654C66.1719 113.654 64.242 99.1152 67.2599 99.5039C70.2777 99.8927 70.8605 118.28 70.8605 118.28C71.1602 122.856 71.225 127.445 71.0548 132.028L72.4277 136.888" fill="white"/>
<path d="M54.5539 136.447C54.1561 133.23 53.2098 130.105 51.7562 127.208C51.1993 124.772 50.1372 123.45 50.0207 118.785C49.8005 116.872 50.1568 114.936 51.0439 113.226C56.7817 105.011 66.1719 113.654 66.1719 113.654C66.1719 113.654 64.242 99.1152 67.2599 99.5039C70.2777 99.8927 70.8605 118.28 70.8605 118.28C71.1602 122.856 71.225 127.445 71.0548 132.028L72.4277 136.888" stroke="black" stroke-width="1.12" stroke-linecap="round" stroke-linejoin="round"/>
<path d="M66.5607 117.58C66.5607 117.58 60.7323 111.982 59.8775 115.598C59.0226 119.213 69.3843 130.409 69.3843 130.409" stroke="black" stroke-width="1.12" stroke-linecap="round" stroke-linejoin="round"/>
<path d="M61.4443 120.146C59.2732 121.062 57.4244 122.605 56.134 124.578" stroke="black" stroke-width="1.12" stroke-linecap="round" stroke-linejoin="round"/>
<path d="M54.347 110.661C53.4812 111.871 52.951 113.289 52.8099 114.77C52.6689 116.252 52.9221 117.744 53.544 119.096C54.6449 121.351 56.7302 121.377 57.041 119.42" stroke="black" stroke-width="1.12" stroke-linecap="round" stroke-linejoin="round"/>
<path d="M57.9085 110C56.6481 110.797 55.7321 112.037 55.3412 113.476C54.9504 114.916 55.1131 116.449 55.7973 117.775C57.0926 120.781 60.2917 119.343 58.7893 115.818C57.7531 113.369 60.3306 110.777 60.3306 110.777" stroke="black" stroke-width="1.12" stroke-linecap="round" stroke-linejoin="round"/>
<path d="M54.2563 120.263C54.2563 120.263 54.2563 121.882 52.9611 121.934C51.6659 121.986 50.0987 119.265 50.4614 116.259" stroke="black" stroke-width="1.12" stroke-linecap="round" stroke-linejoin="round"/>
<path d="M294.931 263.163C301.664 268.454 306.022 276.203 307.046 284.707C308.071 293.211 305.68 301.775 300.397 308.515L296.783 313.115C291.496 319.854 283.75 324.216 275.249 325.241C266.748 326.267 258.188 323.872 251.451 318.584L246.27 314.476L289.751 259.055L294.931 263.163Z" fill="white" stroke="#222221" stroke-linecap="round" stroke-linejoin="round"/>
<path d="M20.6195 129.333C20.2385 129.04 19.8832 128.715 19.5575 128.361H20.2051C20.9262 128.416 21.6513 128.359 22.3551 128.193L36.2527 125.109C38.1433 124.685 39.8002 123.553 40.8839 121.946C41.9675 120.339 42.3959 118.379 42.0811 116.466L40.2549 105.491C40.085 104.466 40.1276 103.418 40.3801 102.411C40.6325 101.404 41.0894 100.459 41.7224 99.6364C42.3554 98.8136 43.1508 98.1298 44.0592 97.6277C44.9677 97.1257 45.9697 96.816 47.0029 96.718L58.5691 95.6036C60.497 95.4134 62.2793 94.4928 63.5507 93.0304C64.8222 91.5681 65.4865 89.6747 65.4077 87.7381L64.8508 74.4433L276.06 248.287L232.567 303.721L20.6195 129.333Z" fill="#9E83CD" stroke="black" stroke-miterlimit="10"/>
<path d="M276.053 248.288L282.91 253.673L239.413 309.112L232.557 303.727L276.053 248.288Z" fill="white" stroke="#222221" stroke-linecap="round" stroke-linejoin="round"/>
<path d="M282.903 253.667L289.76 259.051L246.263 314.49L239.406 309.106L282.903 253.667Z" fill="white" stroke="#222221" stroke-linecap="round" stroke-linejoin="round"/>
<path d="M17.4334 124.992L5.49155 91.7551C14.5287 86.6055 21.2393 78.1751 24.2332 68.2106L59.1131 71.9165C60.9504 72.107 62.6967 72.8121 64.1514 73.9509L64.8897 74.534L65.4078 87.8678C65.4866 89.8043 64.8222 91.6977 63.5507 93.1601C62.2793 94.6224 60.497 95.543 58.5691 95.7332L47.0029 96.8476C45.9697 96.9456 44.9677 97.2553 44.0593 97.7573C43.1508 98.2594 42.3554 98.9432 41.7224 99.766C41.0895 100.589 40.6325 101.533 40.3801 102.54C40.1276 103.547 40.085 104.596 40.2549 105.62L42.0811 116.595C42.3959 118.508 41.9676 120.469 40.8839 122.076C39.8002 123.683 38.1433 124.814 36.2527 125.238L22.3551 128.322C21.6513 128.489 20.9262 128.545 20.2051 128.491H19.5575C18.6157 127.484 17.8924 126.293 17.4334 124.992Z" fill="white" stroke="#222221" stroke-linecap="round" stroke-linejoin="round"/>
<path d="M5.49156 91.7551L1.24328 79.9375C0.678001 78.3707 0.520306 76.6857 0.785051 75.0411C1.0498 73.3965 1.72831 71.8463 2.75672 70.5362C3.78512 69.2262 5.12966 68.1993 6.66391 67.5522C8.19817 66.9051 9.87173 66.659 11.5272 66.837L24.1943 68.1328C21.2275 78.1197 14.5295 86.5794 5.49156 91.7551Z" fill="#9E83CD" stroke="black" stroke-miterlimit="10"/>
<path d="M63.9572 92.5585L266.968 259.871" stroke="#222221" stroke-linecap="round" stroke-linejoin="round"/>
<path d="M40.0607 123.023L243.071 290.335" stroke="#222221" stroke-linecap="round" stroke-linejoin="round"/>
<path d="M212.349 194.123L186.821 230.768L180.5 240.979C172.626 240.388 164.763 242.262 158.002 246.343C154.466 248.468 160.256 250.308 160.256 250.308C160.256 250.308 158.158 256.658 171.187 266C173.635 267.763 176.148 270.808 187.831 260.156C187.831 260.156 219.201 240.007 233.927 212.018" fill="white"/>
<path d="M212.349 194.123L186.821 230.768L180.5 240.979C172.626 240.388 164.763 242.262 158.002 246.343C154.466 248.468 160.256 250.308 160.256 250.308C160.256 250.308 158.158 256.658 171.187 266C173.635 267.763 176.148 270.808 187.831 260.156C187.831 260.156 219.201 240.007 233.927 212.018" stroke="black" stroke-width="1.12" stroke-linecap="round" stroke-linejoin="round"/>
<path d="M202.078 182.616C215.252 180.75 227.512 174.805 237.139 165.615" stroke="black" stroke-width="0.43" stroke-linecap="round" stroke-linejoin="round"/>
<path d="M117.747 27.9762C117.747 27.9762 110.08 42.6575 109.885 65.3209C109.704 86.2091 125.208 109.196 153.676 114.691C180.435 119.874 204.811 113.265 217.685 81.1296C230.56 48.9939 220.496 22.9744 186.678 12.1934C153.365 1.58088 126.853 9.29084 117.747 27.9762Z" fill="#040504"/>
<path d="M128.951 79.8209L130.44 60.4488C130.44 60.4488 109.095 50.7951 105.715 68.9233C102.334 87.0514 121.374 90.563 128.951 79.8209Z" fill="white" stroke="black" stroke-width="1.12" stroke-linecap="round" stroke-linejoin="round"/>
<path d="M122.578 80.093H122.423C122.341 80.0375 122.284 79.9531 122.262 79.8569C122.241 79.7606 122.257 79.6597 122.306 79.5747C122.306 79.4969 127.487 71.2427 121.879 66.3446C121.077 65.5532 120.119 64.9363 119.067 64.5327C118.015 64.1291 116.891 63.9475 115.766 63.9992C113.356 64.3462 111.153 65.5518 109.562 67.3942C109.492 67.4608 109.399 67.4979 109.303 67.4979C109.206 67.4979 109.113 67.4608 109.044 67.3942C109.009 67.3604 108.982 67.3201 108.963 67.2756C108.944 67.2311 108.935 67.1833 108.935 67.1351C108.935 67.0868 108.944 67.039 108.963 66.9945C108.982 66.95 109.009 66.9097 109.044 66.8759C110.753 64.8695 113.142 63.5639 115.753 63.2088C116.977 63.1472 118.2 63.3398 119.346 63.7747C120.492 64.2096 121.535 64.8773 122.41 65.7356C128.459 71.0613 123.045 79.8338 122.993 79.9893C122.939 80.0415 122.872 80.0785 122.8 80.0967C122.727 80.1149 122.651 80.1136 122.578 80.093Z" fill="#040504"/>
<path d="M114.535 71.6703C114.477 71.6635 114.421 71.6436 114.372 71.6122C114.323 71.5808 114.281 71.5386 114.25 71.4889C114.204 71.4012 114.195 71.2989 114.224 71.2042C114.253 71.1096 114.318 71.0303 114.406 70.9835C114.406 70.9835 121.205 67.2905 125.143 72.4608C125.183 72.5387 125.195 72.6282 125.176 72.7138C125.157 72.7994 125.109 72.8757 125.04 72.9295C124.97 72.9833 124.885 73.0113 124.797 73.0085C124.709 73.0057 124.626 72.9724 124.56 72.9143C120.998 68.2365 114.82 71.6185 114.755 71.6185C114.691 71.6617 114.612 71.6801 114.535 71.6703Z" fill="#040504"/>
<path d="M123.64 28.7666C123.64 28.7666 116.646 43.5516 116.115 66.1632C115.623 87.0125 128.925 109.689 153.935 114.729C177.43 119.459 199.021 112.488 210.924 80.2096C222.827 47.9314 214.331 22.1451 184.683 11.9213C155.464 1.85296 131.969 9.97759 123.64 28.7666Z" fill="white" stroke="black" stroke-width="1.12" stroke-linecap="round" stroke-linejoin="round"/>
<path d="M220.418 78.4603L211.468 75.3115C211.468 75.3115 202.7 58.5699 197.221 54.5788C187.08 47.2446 173.35 48.0999 167.146 28.9739L170.54 3.71893C170.54 3.71893 207.414 0.570154 221.325 24.1665C235.235 47.7629 220.418 78.4603 220.418 78.4603Z" fill="#040504"/>
<path d="M108.668 63.4032L118.136 62.7423C118.136 62.7423 126.554 50.2897 132.888 47.8407C144.545 43.448 156.033 45.7933 167.094 28.961L170.488 3.70598C170.488 3.70598 141.851 -8.26715 122.203 10.8069C102.554 29.881 108.668 63.4032 108.668 63.4032Z" fill="#040504"/>
<path d="M210.95 70.8022C210.95 70.8022 229.601 66.7204 228.073 85.0559C226.545 103.391 207.246 101.785 202.791 89.4227" fill="white"/>
<path d="M210.95 70.8022C210.95 70.8022 229.601 66.7204 228.073 85.0559C226.545 103.391 207.246 101.785 202.791 89.4227" stroke="black" stroke-width="1.12" stroke-linecap="round" stroke-linejoin="round"/>
<path d="M208.891 91.3534C208.941 91.3723 208.996 91.3723 209.046 91.3534C209.092 91.3401 209.135 91.3177 209.173 91.2876C209.21 91.2575 209.241 91.2202 209.264 91.1781C209.287 91.1359 209.301 91.0896 209.306 91.0418C209.311 90.9941 209.306 90.9458 209.292 90.8999C209.292 90.8092 206.547 81.5054 213.178 78.253C214.155 77.7047 215.234 77.3642 216.348 77.2528C217.463 77.1413 218.588 77.2612 219.654 77.6051C221.885 78.5781 223.691 80.3211 224.744 82.5161C224.786 82.6046 224.861 82.6731 224.953 82.707C225.045 82.7409 225.147 82.7375 225.236 82.6975C225.281 82.6794 225.321 82.6522 225.355 82.6178C225.388 82.5833 225.414 82.5423 225.431 82.4973C225.448 82.4523 225.456 82.4043 225.454 82.3563C225.451 82.3082 225.439 82.2612 225.418 82.2181C224.301 79.8283 222.34 77.9361 219.913 76.9053C218.749 76.5262 217.519 76.3903 216.301 76.5063C215.082 76.6222 213.9 76.9873 212.828 77.5791C205.588 81.1167 208.489 91.0165 208.515 91.1072C208.543 91.1833 208.595 91.2483 208.662 91.2927C208.73 91.337 208.81 91.3583 208.891 91.3534Z" fill="#040504"/>
<path d="M218.864 85.4187C218.921 85.4244 218.979 85.4169 219.033 85.3966C219.087 85.3764 219.135 85.3441 219.175 85.3021C219.209 85.2683 219.237 85.228 219.255 85.1835C219.274 85.139 219.284 85.0912 219.284 85.043C219.284 84.9947 219.274 84.9469 219.255 84.9024C219.237 84.8579 219.209 84.8176 219.175 84.7838C219.175 84.7838 213.593 79.4192 208.425 83.3714C208.358 83.4412 208.321 83.534 208.321 83.6305C208.321 83.727 208.358 83.8198 208.425 83.8897C208.458 83.9242 208.499 83.9516 208.543 83.9702C208.588 83.9889 208.635 83.9986 208.684 83.9986C208.732 83.9986 208.78 83.9889 208.824 83.9702C208.869 83.9516 208.909 83.9242 208.943 83.8897C213.605 80.3262 218.67 85.1855 218.722 85.2503C218.756 85.3165 218.804 85.3741 218.864 85.4187Z" fill="#040504"/>
<path d="M156.629 91.5608C162.211 92.3123 163.481 87.7512 163.494 87.6734C163.507 87.6266 163.512 87.5775 163.506 87.5291C163.5 87.4807 163.485 87.4339 163.461 87.3916C163.436 87.3492 163.404 87.3122 163.365 87.2827C163.326 87.2532 163.282 87.2318 163.235 87.2199C163.14 87.1958 163.04 87.2094 162.956 87.2578C162.871 87.3061 162.809 87.3854 162.781 87.479C162.781 87.6604 161.486 91.9625 155.722 90.6019C155.627 90.5846 155.528 90.6027 155.445 90.6528C155.361 90.7028 155.299 90.7814 155.269 90.874C155.249 90.97 155.266 91.0701 155.316 91.1542C155.367 91.2383 155.447 91.3002 155.541 91.3275C155.899 91.4271 156.262 91.505 156.629 91.5608Z" fill="#040504" stroke="#040504" stroke-width="0.25" stroke-miterlimit="10"/>
<path d="M193.439 64.9192C193.439 64.9192 197.506 62.1851 190.356 57.1444C183.207 52.1038 180.396 52.5833 178.881 54.4362C177.365 56.2892 178.881 59.127 182.948 61.9C187.831 65.1913 191.211 66.513 193.439 64.9192Z" fill="#040504"/>
<path d="M177.754 76.2056C177.417 78.6936 178.803 80.9353 180.837 81.2074C182.87 81.4795 184.813 79.6913 185.15 77.2034C185.487 74.7155 184.101 72.4738 182.054 72.2016C180.008 71.9295 178.091 73.7307 177.754 76.2056Z" fill="#040504"/>
<path d="M138.315 70.9058C137.978 73.3937 139.364 75.6355 141.411 75.9076C143.457 76.1797 145.374 74.3915 145.711 71.9036C146.048 69.4156 144.662 67.1739 142.615 66.9018C140.569 66.6297 138.652 68.4309 138.315 70.9058Z" fill="#040504"/>
<path d="M134.209 56.2504C134.209 56.2504 131.01 52.5315 139.248 49.5253C147.485 46.519 150.063 47.763 151.034 49.9529C152.006 52.1428 149.739 54.4881 145.128 56.082C139.507 58.0645 135.932 58.3755 134.209 56.2504Z" fill="#040504"/>
<path d="M156.577 82.5679C156.648 82.5726 156.72 82.5583 156.783 82.5264C156.847 82.4945 156.901 82.4462 156.94 82.3865C156.989 82.3034 157.005 82.2046 156.983 82.1105C156.961 82.0164 156.904 81.9343 156.823 81.8812C155.152 80.7717 153.856 79.1814 153.106 77.32C152.368 75.1301 153.106 72.1368 154.635 70.9317C155.121 70.5923 155.71 70.4303 156.301 70.4727C156.893 70.5152 157.452 70.7595 157.885 71.165L158.067 71.3075C162.211 74.5211 164.4 73.627 165.501 72.3053C167.535 69.8692 167.548 58.4662 167.703 56.069C167.707 56.0203 167.7 55.9713 167.684 55.9251C167.669 55.879 167.644 55.8364 167.611 55.8001C167.578 55.7638 167.539 55.7345 167.494 55.7139C167.45 55.6933 167.402 55.6818 167.353 55.6802C167.258 55.6764 167.165 55.7091 167.093 55.7717C167.02 55.8343 166.975 55.9221 166.965 56.0171C166.563 62.4961 166.525 69.9339 164.944 71.8258C163.649 73.3937 161.473 73.0179 158.468 70.7244L158.261 70.5689C157.701 70.0724 156.99 69.7793 156.242 69.737C155.495 69.6946 154.755 69.9056 154.142 70.3356C152.342 71.6314 151.552 75.0523 152.355 77.5662C153.143 79.5923 154.547 81.3194 156.37 82.5031C156.432 82.5434 156.504 82.5658 156.577 82.5679Z" fill="#040504" stroke="#040504" stroke-width="0.25" stroke-miterlimit="10"/>
<path d="M203.917 62.8071C203.917 62.8071 200.032 66.241 200.032 76.7499C200.032 87.2587 203.218 91.9366 200.886 97.1197C198.555 102.303 195.874 106.929 199.242 115.909C199.242 115.909 197.208 107.875 203.438 102.251C209.668 96.6273 207.324 86.2739 206.417 80.0671C205.51 73.8602 214.693 67.4072 214.693 67.4072" fill="#040504"/>
<path d="M123.135 56.3411C123.135 56.3411 126.011 60.6949 123.135 70.8151C120.26 80.9352 116.05 84.6282 116.931 90.252C117.812 95.8757 119.172 101.046 113.551 108.821C113.551 108.821 117.643 101.603 113.123 94.567C108.603 87.5308 113.602 78.0715 116.193 72.3182C118.783 66.5649 111.569 57.909 111.569 57.909" fill="#040504"/>
<path d="M65.9778 177.563C67.079 178.112 68.3348 178.267 69.5365 178.003C70.7382 177.739 71.8134 177.071 72.5833 176.111C74.7981 173.325 77.8419 168.946 76.6503 167.287C74.837 164.695 69.0474 172.95 69.0474 172.95C69.0474 172.95 76.1322 163.296 72.933 161.495C69.7339 159.694 63.8666 169.879 63.8666 169.879C63.8666 169.879 69.423 159.409 67.9983 156.519C66.5736 153.629 59.4759 167.287 59.4759 167.287C59.4759 167.287 65.4856 156.428 62.5325 154.614C59.5795 152.8 53.5956 163.024 54.4245 166.613C55.2535 170.202 62.6491 175.036 62.5325 175.347C63.5364 176.289 64.704 177.04 65.9778 177.563Z" fill="white" stroke="black" stroke-width="1.12" stroke-linecap="round" stroke-linejoin="round"/>
</g>
<defs>
<clipPath id="clip0_137_635">
<rect width="308" height="434" fill="white" transform="matrix(-1 0 0 1 308 0)"/>
</clipPath>
</defs>
</svg>
