<svg width="308" height="434" viewBox="0 0 308 434" fill="none" xmlns="http://www.w3.org/2000/svg">
<g clip-path="url(#clip0_137_572)">
<path d="M111.193 137.108C106.259 139.022 100.869 139.436 95.7002 138.299C90.5311 137.162 85.8124 134.525 82.1352 130.716C78.4581 126.908 75.9861 122.099 75.0289 116.891C74.0717 111.684 74.6719 106.309 76.7544 101.441C78.8368 96.5737 82.3089 92.429 86.7355 89.5266C91.1621 86.6243 96.3464 85.0935 101.639 85.126C106.931 85.1585 112.096 86.7528 116.487 89.7092C120.878 92.6656 124.299 96.8527 126.321 101.746C128.999 108.442 128.91 115.928 126.073 122.559C123.236 129.19 117.884 134.423 111.193 137.108Z" fill="#040504"/>
<path d="M124.78 112.151C118.745 118.474 107.463 117.49 99.5755 109.948C91.6877 102.406 90.1852 91.1849 96.2209 84.8744C102.257 78.5639 113.538 79.5358 121.426 87.0773C129.313 94.6188 130.816 105.84 124.78 112.151Z" fill="white" stroke="black" stroke-width="1.12" stroke-linecap="round" stroke-linejoin="round"/>
<path d="M74.0729 212.069C65.6799 196.222 69.5008 181.372 75.4328 159.11C77.4922 151.336 86.5457 150.195 93.6693 146.593C99.8863 143.444 103.914 144.416 103.914 144.416L107.165 175.515V176.124C106.44 186.49 104.251 208.234 104.251 208.234" fill="white"/>
<path d="M74.0729 212.069C65.6799 196.222 69.5008 181.372 75.4328 159.11C77.4922 151.336 86.5457 150.195 93.6693 146.593C99.8863 143.444 103.914 144.416 103.914 144.416L107.165 175.515V176.124C106.44 186.49 104.251 208.234 104.251 208.234" stroke="black" stroke-width="1.12" stroke-linecap="round" stroke-linejoin="round"/>
<path d="M154.648 408.771L154.764 399.182L155.205 363.574L187.183 364.273L184.036 398.858L183.466 405.039C183.466 405.039 220.651 419.565 220.133 426.886C219.615 434.207 173.312 426.886 173.312 426.886C173.312 426.886 145.011 432.264 154.648 408.771Z" fill="white" stroke="black" stroke-width="1.12" stroke-linecap="round" stroke-linejoin="round"/>
<path d="M152.394 419.954C152.394 421.573 152.485 423.297 152.679 425.137C152.679 425.137 161.901 429.024 187.65 430.903C216.416 432.976 220.366 429.607 220.366 429.607C220.533 428.454 220.476 427.279 220.198 426.148C197.414 428.98 174.288 426.868 152.394 419.954Z" fill="black"/>
<path d="M175.202 427.158C175.202 427.158 180.901 411.972 187.688 406.607L194.164 409.678C194.164 409.678 185.927 419.539 184.644 428.143L175.202 427.158Z" fill="black"/>
<path d="M191.134 428.299C191.134 428.299 193.879 417.932 200.679 412.606L206.611 415.6C203.367 419.516 201.277 424.259 200.576 429.296L191.134 428.299Z" fill="black"/>
<path d="M68.633 396.526L70.0707 391.472L76.0286 335.52L106.712 344.59L97.3477 400.517L97.5809 400.685C100.353 402.758 129.339 424.593 127.034 431.188C124.612 438.121 81.8571 418.917 81.8571 418.917C81.8571 418.917 53.2201 416.675 68.633 396.526Z" fill="white" stroke="black" stroke-width="1.12" stroke-linecap="round" stroke-linejoin="round"/>
<path d="M63.5816 406.724C63.1391 408.389 62.7803 410.076 62.5066 411.777C62.5066 411.777 70.3944 417.971 94.7443 426.484C121.944 436.009 126.671 433.767 126.671 433.767C127.132 432.697 127.383 431.549 127.409 430.385C104.68 427.182 82.9089 419.112 63.5816 406.724Z" fill="black"/>
<path d="M83.6833 419.591C83.6833 419.591 93.1384 406.426 101.104 403.018L106.544 407.682C106.544 407.682 96.0267 415.043 92.5296 423.012L83.6833 419.591Z" fill="black"/>
<path d="M98.7595 424.916C98.7595 424.916 104.109 415.665 112.061 412.257L117.009 416.688C112.853 419.627 109.597 423.665 107.606 428.35L98.7595 424.916Z" fill="black"/>
<path d="M102.218 217.68L139.649 226.246L182.313 225.118C182.313 225.118 204.733 294.054 202.777 387.326C202.777 387.326 179.244 395.372 143.133 387.248C143.133 387.248 134.624 313.465 135.556 273.983C135.556 273.983 126.917 385.861 118.628 386.794C82.6859 390.85 59.9939 375.884 59.9939 375.884C74.9665 262.8 102.218 217.68 102.218 217.68Z" fill="#F1A944"/>
<path d="M101.531 232.634C101.531 232.634 82.8024 257.111 64.0737 378.125" stroke="white" stroke-linecap="round" stroke-linejoin="round"/>
<path d="M156.448 273.36C156.448 273.36 139.364 275.952 125.052 273.36" stroke="white" stroke-linecap="round" stroke-linejoin="round"/>
<path d="M136.346 274.462C140.486 277.119 144.882 279.354 149.467 281.135" stroke="white" stroke-linecap="round" stroke-linejoin="round"/>
<path d="M191.25 139.065C203.878 150.247 219.926 165.33 219.926 165.33L234.432 123.1L234.354 120.444C239.974 121.162 245.542 122.24 251.024 123.671C251.322 135.41 251.84 188.084 237.152 201.418C220.599 216.41 179.697 174.206 179.697 174.206L191.25 139.065Z" fill="white" stroke="black" stroke-width="1.12" stroke-linecap="round" stroke-linejoin="round"/>
<path d="M154.557 138.157C154.557 138.157 146.786 146.386 156.824 161.313C162.804 170.235 170.892 177.543 180.37 182.59C180.37 182.59 203.062 164.605 206.521 151.569L204.086 148.394C204.086 148.394 177.56 111.334 154.557 138.157Z" fill="white" stroke="black" stroke-width="1.12" stroke-linecap="round" stroke-linejoin="round"/>
<path d="M174.581 128.335C174.581 128.335 142.408 123.295 112.657 125.459C112.657 125.459 92.3094 203.517 92.0115 217.356C92.0115 217.356 125.57 241.238 185.616 227.386C185.616 227.386 184.139 206.29 181.73 182.124" fill="white"/>
<path d="M174.581 128.335C174.581 128.335 142.408 123.295 112.657 125.459C112.657 125.459 92.3094 203.517 92.0115 217.356C92.0115 217.356 125.57 241.238 185.616 227.386C185.616 227.386 184.139 206.29 181.73 182.124" stroke="black" stroke-width="1.12" stroke-linecap="round" stroke-linejoin="round"/>
<path d="M149.065 127.882C149.065 127.882 160.981 127.312 168.765 129.178C168.765 129.178 166.343 138.054 152.821 140.555C150.643 140.915 148.428 140.998 146.229 140.801C139.092 140.283 130.104 138.598 126.555 128.4C126.606 128.413 137.318 128.037 149.065 127.882Z" fill="white" stroke="black" stroke-width="1.12" stroke-linecap="round" stroke-linejoin="round"/>
<path d="M104.51 185.92C91.2601 184.833 78.8684 178.923 69.6821 169.308C69.6821 169.308 82.6342 123.139 113.408 125.977" fill="white"/>
<path d="M104.51 185.92C91.2601 184.833 78.8684 178.923 69.6821 169.308C69.6821 169.308 82.6342 123.139 113.408 125.977" stroke="black" stroke-width="1.12" stroke-linecap="round" stroke-linejoin="round"/>
<path d="M185.59 224.094C185.59 224.094 133.147 236.379 95.6509 215.542" stroke="black" stroke-width="0.43" stroke-linecap="round" stroke-linejoin="round"/>
<path d="M161.279 213.91C143.99 201.393 129.014 185.958 117.022 168.298" stroke="black" stroke-width="0.43" stroke-linecap="round" stroke-linejoin="round"/>
<path d="M138.833 219.391C129.218 211.484 121.548 201.474 116.413 190.132" stroke="black" stroke-width="0.43" stroke-linecap="round" stroke-linejoin="round"/>
<path d="M113.408 125.977C113.408 125.977 120.286 150.144 104.51 185.92" stroke="black" stroke-width="0.43" stroke-linecap="round" stroke-linejoin="round"/>
<path d="M174.581 128.335C174.581 128.335 181.484 145.854 182.002 184.858" stroke="black" stroke-width="0.43" stroke-linecap="round" stroke-linejoin="round"/>
<path d="M162.73 130.551L163.39 114.898C152.743 119.389 141.061 120.847 129.637 119.109L131.554 131.367" fill="white"/>
<path d="M162.73 130.551L163.39 114.898C152.743 119.389 141.061 120.847 129.637 119.109L131.554 131.367" stroke="black" stroke-width="1.12" stroke-linecap="round" stroke-linejoin="round"/>
<path d="M127.047 104.843L129.637 119.096C141.07 120.838 152.761 119.381 163.416 114.885L163.766 101.707L127.047 104.843Z" fill="black" stroke="black" stroke-miterlimit="10"/>
<path d="M253.446 136.447C253.844 133.23 254.79 130.105 256.244 127.208C256.8 124.772 257.863 123.45 257.979 118.785C258.199 116.872 257.843 114.936 256.956 113.226C251.218 105.011 241.828 113.654 241.828 113.654C241.828 113.654 243.758 99.1153 240.74 99.504C237.722 99.8927 237.139 118.28 237.139 118.28C236.84 122.857 236.775 127.445 236.945 132.028L235.572 136.888" fill="white"/>
<path d="M253.446 136.447C253.844 133.23 254.79 130.105 256.244 127.208C256.8 124.772 257.863 123.45 257.979 118.785C258.199 116.872 257.843 114.936 256.956 113.226C251.218 105.011 241.828 113.654 241.828 113.654C241.828 113.654 243.758 99.1153 240.74 99.504C237.722 99.8927 237.139 118.28 237.139 118.28C236.84 122.856 236.775 127.445 236.945 132.028L235.572 136.888" stroke="black" stroke-width="1.12" stroke-linecap="round" stroke-linejoin="round"/>
<path d="M241.439 117.58C241.439 117.58 247.268 111.982 248.123 115.598C248.977 119.213 238.616 130.409 238.616 130.409" stroke="black" stroke-width="1.12" stroke-linecap="round" stroke-linejoin="round"/>
<path d="M246.555 120.146C248.727 121.062 250.575 122.605 251.866 124.578" stroke="black" stroke-width="1.12" stroke-linecap="round" stroke-linejoin="round"/>
<path d="M253.653 110.661C254.519 111.871 255.049 113.289 255.19 114.77C255.331 116.252 255.078 117.744 254.456 119.096C253.355 121.351 251.27 121.377 250.959 119.42" stroke="black" stroke-width="1.12" stroke-linecap="round" stroke-linejoin="round"/>
<path d="M250.091 110C251.352 110.797 252.268 112.037 252.659 113.476C253.049 114.916 252.887 116.449 252.202 117.775C250.907 120.781 247.708 119.343 249.21 115.818C250.247 113.369 247.669 110.777 247.669 110.777" stroke="black" stroke-width="1.12" stroke-linecap="round" stroke-linejoin="round"/>
<path d="M253.744 120.263C253.744 120.263 253.744 121.882 255.039 121.934C256.334 121.986 257.901 119.265 257.539 116.259" stroke="black" stroke-width="1.12" stroke-linecap="round" stroke-linejoin="round"/>
<path d="M13.0687 263.163C6.33599 268.454 1.97846 276.203 0.953579 284.707C-0.0713006 293.211 2.32031 301.775 7.6029 308.515L11.2165 313.115C16.5036 319.854 24.2495 324.216 32.7508 325.241C41.252 326.267 49.8122 323.872 56.5487 318.584L61.7296 314.476L18.2495 259.055L13.0687 263.163Z" fill="white" stroke="#222221" stroke-linecap="round" stroke-linejoin="round"/>
<path d="M287.38 129.333C287.761 129.04 288.117 128.715 288.442 128.361H287.795C287.074 128.416 286.348 128.359 285.645 128.193L271.747 125.109C269.856 124.685 268.2 123.553 267.116 121.946C266.032 120.339 265.604 118.379 265.919 116.466L267.745 105.491C267.915 104.466 267.872 103.418 267.62 102.411C267.367 101.404 266.91 100.459 266.277 99.6365C265.644 98.8136 264.849 98.1299 263.941 97.6278C263.032 97.1257 262.03 96.816 260.997 96.718L249.431 95.6037C247.503 95.4134 245.72 94.4928 244.449 93.0305C243.178 91.5682 242.513 89.6748 242.592 87.7382L243.149 74.4434L31.9397 248.287L75.4327 303.721L287.38 129.333Z" fill="#9E83CD" stroke="black" stroke-miterlimit="10"/>
<path d="M31.9468 248.288L25.0901 253.673L68.587 309.112L75.4437 303.727L31.9468 248.288Z" fill="white" stroke="#222221" stroke-linecap="round" stroke-linejoin="round"/>
<path d="M25.0967 253.667L18.24 259.051L61.7369 314.49L68.5936 309.106L25.0967 253.667Z" fill="white" stroke="#222221" stroke-linecap="round" stroke-linejoin="round"/>
<path d="M290.567 124.992L302.508 91.7551C293.471 86.6055 286.761 78.1751 283.767 68.2106L248.887 71.9165C247.05 72.107 245.303 72.8121 243.849 73.9509L243.11 74.534L242.592 87.8678C242.513 89.8043 243.178 91.6977 244.449 93.1601C245.721 94.6224 247.503 95.543 249.431 95.7332L260.997 96.8476C262.03 96.9456 263.032 97.2553 263.941 97.7573C264.849 98.2594 265.645 98.9432 266.278 99.766C266.911 100.589 267.367 101.533 267.62 102.54C267.872 103.547 267.915 104.596 267.745 105.62L265.919 116.595C265.604 118.508 266.032 120.469 267.116 122.076C268.2 123.683 269.857 124.814 271.747 125.238L285.645 128.322C286.349 128.489 287.074 128.545 287.795 128.491H288.442C289.384 127.484 290.108 126.293 290.567 124.992Z" fill="white" stroke="#222221" stroke-linecap="round" stroke-linejoin="round"/>
<path d="M302.508 91.7551L306.757 79.9375C307.322 78.3707 307.48 76.6857 307.215 75.0411C306.95 73.3965 306.272 71.8463 305.243 70.5362C304.215 69.2262 302.87 68.1993 301.336 67.5522C299.802 66.9051 298.128 66.659 296.473 66.837L283.806 68.1328C286.772 78.1197 293.47 86.5794 302.508 91.7551Z" fill="#9E83CD" stroke="black" stroke-miterlimit="10"/>
<path d="M244.043 92.5585L41.0322 259.871" stroke="#222221" stroke-linecap="round" stroke-linejoin="round"/>
<path d="M267.939 123.023L64.9287 290.335" stroke="#222221" stroke-linecap="round" stroke-linejoin="round"/>
<path d="M95.6509 194.123L121.179 230.768L127.5 240.979C135.374 240.388 143.237 242.262 149.998 246.343C153.534 248.468 147.744 250.308 147.744 250.308C147.744 250.308 149.842 256.658 136.813 266C134.365 267.763 131.852 270.808 120.169 260.156C120.169 260.156 88.7992 240.007 74.0728 212.018" fill="white"/>
<path d="M95.6509 194.123L121.179 230.768L127.5 240.979C135.374 240.388 143.237 242.262 149.998 246.343C153.534 248.468 147.744 250.308 147.744 250.308C147.744 250.308 149.842 256.658 136.813 266C134.365 267.763 131.852 270.808 120.169 260.156C120.169 260.156 88.7992 240.007 74.0728 212.018" stroke="black" stroke-width="1.12" stroke-linecap="round" stroke-linejoin="round"/>
<path d="M105.922 182.616C92.7477 180.75 80.4877 174.805 70.8608 165.615" stroke="black" stroke-width="0.43" stroke-linecap="round" stroke-linejoin="round"/>
<path d="M190.253 27.9762C190.253 27.9762 197.92 42.6576 198.115 65.321C198.296 86.2092 182.792 109.197 154.324 114.691C127.565 119.874 103.189 113.265 90.3146 81.1296C77.4403 48.994 87.504 22.9745 121.322 12.1935C154.635 1.58091 181.147 9.29087 190.253 27.9762Z" fill="#040504"/>
<path d="M179.049 79.8208L177.56 60.4487C177.56 60.4487 198.905 50.7951 202.285 68.9232C205.666 87.0513 186.626 90.5629 179.049 79.8208Z" fill="white" stroke="black" stroke-width="1.12" stroke-linecap="round" stroke-linejoin="round"/>
<path d="M185.422 80.0929H185.577C185.659 80.0375 185.716 79.953 185.738 79.8568C185.759 79.7606 185.744 79.6597 185.694 79.5746C185.694 79.4969 180.513 71.2427 186.121 66.3446C186.924 65.5531 187.881 64.9362 188.933 64.5326C189.985 64.129 191.109 63.9474 192.235 63.9992C194.644 64.3461 196.847 65.5517 198.439 67.3941C198.508 67.4607 198.601 67.4978 198.698 67.4978C198.794 67.4978 198.887 67.4607 198.957 67.3941C198.991 67.3604 199.019 67.3201 199.037 67.2756C199.056 67.2311 199.066 67.1833 199.066 67.135C199.066 67.0867 199.056 67.0389 199.037 66.9944C199.019 66.9499 198.991 66.9096 198.957 66.8758C197.247 64.8694 194.859 63.5638 192.248 63.2087C191.024 63.1471 189.8 63.3398 188.654 63.7747C187.509 64.2095 186.465 64.8772 185.59 65.7355C179.542 71.0612 184.956 79.8338 185.007 79.9893C185.061 80.0414 185.128 80.0784 185.201 80.0966C185.273 80.1148 185.35 80.1135 185.422 80.0929Z" fill="#040504"/>
<path d="M193.465 71.6703C193.523 71.6635 193.579 71.6436 193.628 71.6122C193.677 71.5808 193.719 71.5386 193.75 71.4889C193.796 71.4012 193.805 71.2989 193.776 71.2042C193.747 71.1096 193.682 71.0303 193.594 70.9835C193.594 70.9835 186.795 67.2905 182.857 72.4608C182.817 72.5387 182.805 72.6282 182.824 72.7138C182.843 72.7994 182.891 72.8757 182.96 72.9295C183.03 72.9833 183.115 73.0113 183.203 73.0085C183.291 73.0057 183.374 72.9724 183.44 72.9143C187.002 68.2365 193.18 71.6185 193.245 71.6185C193.309 71.6617 193.388 71.6801 193.465 71.6703Z" fill="#040504"/>
<path d="M184.36 28.7666C184.36 28.7666 191.354 43.5516 191.885 66.1632C192.377 87.0125 179.075 109.689 154.065 114.729C130.57 119.459 108.979 112.488 97.0757 80.2096C85.1728 47.9314 93.6693 22.1451 123.317 11.9213C152.536 1.85296 176.031 9.97759 184.36 28.7666Z" fill="white" stroke="black" stroke-width="1.12" stroke-linecap="round" stroke-linejoin="round"/>
<path d="M87.5817 78.4603L96.5316 75.3115C96.5316 75.3115 105.3 58.5699 110.779 54.5788C120.92 47.2447 134.65 48.0999 140.854 28.974L137.46 3.71896C137.46 3.71896 100.586 0.570185 86.6751 24.1666C72.7646 47.763 87.5817 78.4603 87.5817 78.4603Z" fill="#040504"/>
<path d="M199.332 63.4032L189.864 62.7423C189.864 62.7423 181.445 50.2898 175.112 47.8407C163.455 43.448 151.966 45.7934 140.905 28.961L137.512 3.70601C137.512 3.70601 166.149 -8.26712 185.797 10.807C205.446 29.881 199.332 63.4032 199.332 63.4032Z" fill="#040504"/>
<path d="M97.0498 70.8022C97.0498 70.8022 78.3988 66.7204 79.9272 85.0559C81.4555 103.391 100.754 101.785 105.21 89.4227" fill="white"/>
<path d="M97.0498 70.8022C97.0498 70.8022 78.3988 66.7204 79.9272 85.0559C81.4555 103.391 100.754 101.785 105.21 89.4227" stroke="black" stroke-width="1.12" stroke-linecap="round" stroke-linejoin="round"/>
<path d="M99.1091 91.3534C99.059 91.3723 99.0038 91.3723 98.9537 91.3534C98.9076 91.34 98.8647 91.3176 98.8273 91.2875C98.7899 91.2574 98.7589 91.2202 98.736 91.178C98.7131 91.1358 98.6988 91.0895 98.694 91.0418C98.6891 90.994 98.6937 90.9458 98.7076 90.8998C98.7076 90.8091 101.453 81.5053 94.822 78.2529C93.8453 77.7047 92.766 77.3642 91.6516 77.2527C90.5372 77.1412 89.4119 77.2611 88.346 77.605C86.1153 78.578 84.3086 80.3211 83.2558 82.516C83.2137 82.6045 83.1386 82.6731 83.0466 82.7069C82.9547 82.7408 82.8531 82.7374 82.7636 82.6975C82.7191 82.6793 82.6788 82.6522 82.6452 82.6177C82.6117 82.5833 82.5856 82.5423 82.5685 82.4973C82.5515 82.4523 82.544 82.4043 82.5463 82.3562C82.5487 82.3082 82.5609 82.2611 82.5823 82.218C83.6991 79.8283 85.6597 77.936 88.0869 76.9053C89.251 76.5261 90.4806 76.3903 91.6993 76.5062C92.918 76.6221 94.0999 76.9873 95.1717 77.5791C102.412 81.1166 99.5107 91.0165 99.4848 91.1072C99.457 91.1832 99.4055 91.2482 99.3378 91.2926C99.2701 91.337 99.1899 91.3583 99.1091 91.3534Z" fill="#040504"/>
<path d="M89.136 85.4187C89.0787 85.4244 89.0209 85.4169 88.967 85.3966C88.9131 85.3764 88.8646 85.3441 88.8252 85.3021C88.7907 85.2683 88.7633 85.228 88.7446 85.1835C88.7259 85.139 88.7163 85.0912 88.7163 85.043C88.7163 84.9947 88.7259 84.9469 88.7446 84.9024C88.7633 84.8579 88.7907 84.8176 88.8252 84.7838C88.8252 84.7838 94.4075 79.4192 99.5754 83.3714C99.6419 83.4412 99.679 83.534 99.679 83.6305C99.679 83.727 99.6419 83.8198 99.5754 83.8897C99.5416 83.9242 99.5013 83.9516 99.4568 83.9702C99.4123 83.9889 99.3646 83.9986 99.3163 83.9986C99.2681 83.9986 99.2203 83.9889 99.1758 83.9702C99.1314 83.9516 99.0911 83.9242 99.0573 83.8897C94.3945 80.3262 89.3303 85.1855 89.2785 85.2503C89.2443 85.3165 89.1956 85.3741 89.136 85.4187Z" fill="#040504"/>
<path d="M151.371 91.5608C145.788 92.3123 144.519 87.7512 144.506 87.6734C144.492 87.6266 144.488 87.5775 144.494 87.5291C144.5 87.4807 144.515 87.4339 144.539 87.3916C144.563 87.3492 144.596 87.3122 144.635 87.2827C144.673 87.2532 144.718 87.2318 144.765 87.2199C144.859 87.1958 144.96 87.2094 145.044 87.2578C145.129 87.3061 145.191 87.3854 145.218 87.479C145.218 87.6604 146.514 91.9625 152.277 90.6019C152.373 90.5846 152.472 90.6027 152.555 90.6528C152.638 90.7028 152.701 90.7814 152.731 90.874C152.751 90.97 152.734 91.0701 152.684 91.1542C152.633 91.2383 152.553 91.3002 152.459 91.3275C152.101 91.4271 151.738 91.505 151.371 91.5608Z" fill="#040504" stroke="#040504" stroke-width="0.25" stroke-miterlimit="10"/>
<path d="M114.561 64.9193C114.561 64.9193 110.494 62.1851 117.643 57.1445C124.793 52.1039 127.604 52.5833 129.119 54.4363C130.634 56.2893 129.119 59.1271 125.052 61.9001C120.169 65.1914 116.789 66.5131 114.561 64.9193Z" fill="#040504"/>
<path d="M130.246 76.2056C130.583 78.6936 129.197 80.9353 127.163 81.2074C125.13 81.4795 123.187 79.6913 122.85 77.2034C122.513 74.7155 123.899 72.4738 125.946 72.2016C127.992 71.9295 129.909 73.7307 130.246 76.2056Z" fill="#040504"/>
<path d="M169.685 70.9058C170.022 73.3937 168.636 75.6355 166.59 75.9076C164.543 76.1797 162.626 74.3915 162.289 71.9036C161.953 69.4156 163.339 67.1739 165.385 66.9018C167.431 66.6297 169.348 68.4309 169.685 70.9058Z" fill="#040504"/>
<path d="M173.791 56.2504C173.791 56.2504 176.99 52.5315 168.752 49.5253C160.515 46.519 157.937 47.763 156.966 49.9529C155.995 52.1428 158.261 54.4881 162.872 56.082C168.493 58.0645 172.068 58.3755 173.791 56.2504Z" fill="#040504"/>
<path d="M151.422 82.5679C151.351 82.5726 151.28 82.5583 151.217 82.5264C151.153 82.4945 151.099 82.4462 151.06 82.3865C151.011 82.3034 150.995 82.2046 151.017 82.1105C151.039 82.0164 151.096 81.9343 151.176 81.8812C152.848 80.7717 154.144 79.1814 154.894 77.32C155.632 75.1301 154.894 72.1368 153.365 70.9317C152.879 70.5923 152.29 70.4303 151.698 70.4727C151.107 70.5152 150.548 70.7595 150.114 71.165L149.933 71.3075C145.788 74.5211 143.599 73.627 142.498 72.3053C140.465 69.8692 140.452 58.4662 140.297 56.069C140.293 56.0203 140.299 55.9713 140.315 55.9251C140.331 55.879 140.356 55.8364 140.389 55.8001C140.421 55.7638 140.461 55.7345 140.505 55.7139C140.55 55.6933 140.598 55.6818 140.646 55.6802C140.742 55.6764 140.835 55.7091 140.907 55.7717C140.979 55.8343 141.025 55.9221 141.035 56.0171C141.436 62.4961 141.475 69.9339 143.055 71.8258C144.351 73.3937 146.527 73.0179 149.531 70.7244L149.739 70.5689C150.299 70.0724 151.01 69.7793 151.758 69.737C152.505 69.6946 153.245 69.9056 153.857 70.3356C155.658 71.6314 156.448 75.0523 155.645 77.5662C154.857 79.5923 153.452 81.3194 151.63 82.5031C151.568 82.5434 151.496 82.5658 151.422 82.5679Z" fill="#040504" stroke="#040504" stroke-width="0.25" stroke-miterlimit="10"/>
<path d="M104.083 62.8071C104.083 62.8071 107.968 66.241 107.968 76.7499C107.968 87.2587 104.782 91.9366 107.114 97.1197C109.445 102.303 112.126 106.929 108.758 115.909C108.758 115.909 110.792 107.875 104.562 102.251C98.332 96.6273 100.676 86.2739 101.583 80.0671C102.49 73.8602 93.3066 67.4072 93.3066 67.4072" fill="#040504"/>
<path d="M184.865 56.3411C184.865 56.3411 181.989 60.6949 184.865 70.8151C187.74 80.9352 191.95 84.6282 191.069 90.252C190.188 95.8757 188.828 101.046 194.449 108.821C194.449 108.821 190.357 101.603 194.877 94.567C199.397 87.5308 194.398 78.0715 191.807 72.3182C189.217 66.5649 196.431 57.909 196.431 57.909" fill="#040504"/>
<path d="M242.022 177.563C240.921 178.112 239.665 178.267 238.464 178.003C237.262 177.739 236.187 177.071 235.417 176.111C233.202 173.325 230.158 168.946 231.35 167.287C233.163 164.695 238.953 172.95 238.953 172.95C238.953 172.95 231.868 163.296 235.067 161.495C238.266 159.694 244.133 169.879 244.133 169.879C244.133 169.879 238.577 159.409 240.002 156.519C241.426 153.629 248.524 167.287 248.524 167.287C248.524 167.287 242.514 156.428 245.467 154.614C248.421 152.8 254.404 163.024 253.575 166.613C252.747 170.202 245.351 175.036 245.467 175.347C244.464 176.289 243.296 177.04 242.022 177.563Z" fill="white" stroke="black" stroke-width="1.12" stroke-linecap="round" stroke-linejoin="round"/>
</g>
<defs>
<clipPath id="clip0_137_572">
<rect width="308" height="434" fill="white"/>
</clipPath>
</defs>
</svg>
