<svg width="137" height="136" viewBox="0 0 137 136" fill="none" xmlns="http://www.w3.org/2000/svg">
<g clip-path="url(#clip0_137_36)">
<path d="M106.486 105.773C92.2889 117.86 84.9592 120.173 68.6417 121.46L68.0879 121.431C55.9956 120.481 42.2939 119.401 25.2792 99.5552C16.6074 85.5021 14.1772 78.2437 15.6367 59.8965C19.3927 44.2023 22.7676 37.3104 36.1239 25.7968L30.4654 18.0453L27.3185 13.7383C26.136 14.7405 25.1587 15.5578 24.3378 16.2518C20.0442 19.8551 20.0442 19.8551 16.4152 24.1362C15.5356 25.1773 14.4607 26.4649 13.0338 28.1092C12.0109 29.799 11.1183 31.2325 10.3951 32.3871C7.43065 37.1385 7.43069 37.1385 5.31323 42.3244C4.79852 43.5861 4.16 45.1461 3.3293 47.144C2.87974 49.0608 2.47575 50.7116 2.14673 52.0089C0.798071 57.4446 0.798106 57.4446 0.390901 63.036C0.293172 64.3949 0.169397 66.0749 0 68.2252L0.856721 78.8988C1.33559 80.8091 1.72329 82.4502 2.03276 83.7637C3.31627 89.2156 3.31623 89.2157 5.4956 94.3725C6.02659 95.6309 6.6847 97.1844 7.5154 99.1855L13.1478 108.309L14.7278 110.167C22.1878 118.898 23.5234 120.471 37.5084 128.998L47.4507 133.078L57.9176 135.568C83.1512 137.514 102.166 133.691 124.048 108.186L129.657 99.046L133.781 88.9919C137.436 73.8328 141.574 56.65 123.986 28.0184C122.601 26.3968 121.526 25.1351 120.656 24.107C117.037 19.8356 117.037 19.8356 112.734 16.2226C111.691 15.3469 110.398 14.2767 108.753 12.8594L99.573 7.2777C84.4412 1.05063 81.5517 0.839813 71.9743 0.14251L69.7721 -0.0196533V14.8994C90.2789 16.6929 97.3871 22.7351 106.346 30.3503C127.292 54.7721 127.292 81.5031 106.486 105.773Z" fill="#3D2665"/>
<path d="M29.312 12.2985L32.6087 16.8131L29.312 12.2985Z" fill="#3D2665"/>
<path d="M54.04 72.04C54.1733 72.7067 54.46 73.2133 54.9 73.56C55.34 73.9067 55.9333 74.08 56.68 74.08C57.6267 74.08 58.32 73.7067 58.76 72.96C59.2 72.2133 59.42 70.94 59.42 69.14C59.1 69.5933 58.6467 69.9467 58.06 70.2C57.4867 70.44 56.86 70.56 56.18 70.56C55.3133 70.56 54.5267 70.3867 53.82 70.04C53.1133 69.68 52.5533 69.1533 52.14 68.46C51.74 67.7533 51.54 66.9 51.54 65.9C51.54 64.4333 51.9667 63.2667 52.82 62.4C53.6867 61.52 54.8733 61.08 56.38 61.08C58.1933 61.08 59.48 61.6867 60.24 62.9C61.0133 64.1 61.4 65.9467 61.4 68.44C61.4 70.16 61.2533 71.5667 60.96 72.66C60.68 73.7533 60.1867 74.58 59.48 75.14C58.7733 75.7 57.7933 75.98 56.54 75.98C55.1133 75.98 54.0133 75.6067 53.24 74.86C52.4667 74.1133 52.0333 73.1733 51.94 72.04H54.04ZM56.58 68.64C57.38 68.64 58.0067 68.3933 58.46 67.9C58.9267 67.3933 59.16 66.7267 59.16 65.9C59.16 64.98 58.9133 64.2667 58.42 63.76C57.94 63.24 57.28 62.98 56.44 62.98C55.6 62.98 54.9333 63.2467 54.44 63.78C53.96 64.3 53.72 64.9867 53.72 65.84C53.72 66.6533 53.9533 67.3267 54.42 67.86C54.9 68.38 55.62 68.64 56.58 68.64ZM63.8953 68.52C63.8953 66.2133 64.282 64.4133 65.0553 63.12C65.842 61.8133 67.1886 61.16 69.0953 61.16C71.002 61.16 72.342 61.8133 73.1153 63.12C73.902 64.4133 74.2953 66.2133 74.2953 68.52C74.2953 70.8533 73.902 72.68 73.1153 74C72.342 75.3067 71.002 75.96 69.0953 75.96C67.1886 75.96 65.842 75.3067 65.0553 74C64.282 72.68 63.8953 70.8533 63.8953 68.52ZM72.0553 68.52C72.0553 67.44 71.982 66.5267 71.8353 65.78C71.702 65.0333 71.422 64.4267 70.9953 63.96C70.5686 63.48 69.9353 63.24 69.0953 63.24C68.2553 63.24 67.622 63.48 67.1953 63.96C66.7686 64.4267 66.482 65.0333 66.3353 65.78C66.202 66.5267 66.1353 67.44 66.1353 68.52C66.1353 69.64 66.202 70.58 66.3353 71.34C66.4686 72.1 66.7486 72.7133 67.1753 73.18C67.6153 73.6467 68.2553 73.88 69.0953 73.88C69.9353 73.88 70.5686 73.6467 70.9953 73.18C71.4353 72.7133 71.722 72.1 71.8553 71.34C71.9886 70.58 72.0553 69.64 72.0553 68.52ZM76.3478 64.94C76.3478 63.9667 76.6278 63.2067 77.1878 62.66C77.7611 62.1 78.4945 61.82 79.3878 61.82C80.2811 61.82 81.0078 62.1 81.5678 62.66C82.1411 63.2067 82.4278 63.9667 82.4278 64.94C82.4278 65.9133 82.1411 66.68 81.5678 67.24C81.0078 67.8 80.2811 68.08 79.3878 68.08C78.4945 68.08 77.7611 67.8 77.1878 67.24C76.6278 66.68 76.3478 65.9133 76.3478 64.94ZM88.5478 62.08L80.5678 76H78.3278L86.3078 62.08H88.5478ZM79.3878 63.2C78.5478 63.2 78.1278 63.78 78.1278 64.94C78.1278 66.1133 78.5478 66.7 79.3878 66.7C79.7878 66.7 80.0945 66.56 80.3078 66.28C80.5345 65.9867 80.6478 65.54 80.6478 64.94C80.6478 63.78 80.2278 63.2 79.3878 63.2ZM84.4878 73.12C84.4878 72.1467 84.7678 71.3867 85.3278 70.84C85.9011 70.28 86.6345 70 87.5278 70C88.4078 70 89.1278 70.28 89.6878 70.84C90.2611 71.3867 90.5478 72.1467 90.5478 73.12C90.5478 74.0933 90.2611 74.86 89.6878 75.42C89.1278 75.98 88.4078 76.26 87.5278 76.26C86.6345 76.26 85.9011 75.98 85.3278 75.42C84.7678 74.86 84.4878 74.0933 84.4878 73.12ZM87.5078 71.38C86.6678 71.38 86.2478 71.96 86.2478 73.12C86.2478 74.28 86.6678 74.86 87.5078 74.86C88.3478 74.86 88.7678 74.28 88.7678 73.12C88.7678 71.96 88.3478 71.38 87.5078 71.38Z" fill="#F1A944"/>
</g>
<defs>
<clipPath id="clip0_137_36">
<rect width="137" height="136" fill="white"/>
</clipPath>
</defs>
</svg>
