<svg width="137" height="136" viewBox="0 0 137 136" fill="none" xmlns="http://www.w3.org/2000/svg">
<g clip-path="url(#clip0_137_54)">
<path d="M121.443 76.2823C118.013 90.534 115.905 94.6346 106.475 105.634C87.8075 121.506 75.5502 121.855 60.2538 120.654C39.2082 115.659 33.0583 108.494 25.2733 99.4251L24.1235 97.6016C19.6023 90.3526 16.3385 85.1151 14.9834 68.1491C16.3352 51.0277 19.6413 45.706 24.2212 38.3501L24.5469 37.7963L12.4362 29.0509C3.74561 43.2443 1.49806 48.9709 -0.0166016 68.1556C0.15278 70.099 0.273282 71.7931 0.371001 73.147C0.781425 78.7213 0.78143 78.7213 2.12671 84.1596C2.45244 85.4812 2.85963 87.1169 3.37103 89.219C4.13976 91.0361 4.7782 92.5941 5.29286 93.8508C7.41012 99.0332 7.41008 99.0332 10.3775 103.778C11.0974 104.935 12.0062 106.37 13.13 108.209C14.4329 109.699 15.5241 110.988 16.3873 112.028C20.0062 116.294 20.0062 116.294 24.3026 119.899C25.3482 120.774 26.6413 121.842 28.2928 123.261C42.1527 131.683 44.8726 132.33 55.0029 134.721L57.8824 135.401C74.1137 136.654 76.8107 135.997 86.84 133.564L89.7716 132.855C111.456 123.915 118.762 116.534 129.612 98.9263C130.358 97.0995 131.016 95.548 131.547 94.2945C133.733 89.1445 133.733 89.1445 135.009 83.7029C135.335 82.3814 135.703 80.7424 136.211 78.6371C136.351 76.6742 136.495 74.9965 136.612 73.6393C137.084 68.0714 137.084 68.0714 136.612 62.4971C136.495 61.1432 136.351 59.4653 136.182 57.3146C129.28 28.7886 117.097 14.5822 89.6772 3.26185C87.6056 2.76628 85.9899 2.37112 84.6805 2.05046C79.231 0.715981 79.231 0.715982 73.6056 0.311105C72.5339 0.233368 71.2636 0.142671 69.7196 0.0228271V14.9223C84.9997 16.1985 92.6576 18.78 106.293 30.353C120.948 47.319 122.834 58.6685 121.443 76.2823Z" fill="#3D2665"/>
<path d="M55.66 67.38C54.2733 66.6867 53.58 65.5933 53.58 64.1C53.58 63.38 53.76 62.72 54.12 62.12C54.48 61.52 55.02 61.0467 55.74 60.7C56.46 60.34 57.34 60.16 58.38 60.16C59.4067 60.16 60.28 60.34 61 60.7C61.7333 61.0467 62.28 61.52 62.64 62.12C63 62.72 63.18 63.38 63.18 64.1C63.18 64.8467 62.9867 65.5067 62.6 66.08C62.2267 66.64 61.7267 67.0733 61.1 67.38C61.86 67.66 62.46 68.12 62.9 68.76C63.34 69.3867 63.56 70.1267 63.56 70.98C63.56 71.8467 63.34 72.6133 62.9 73.28C62.46 73.9467 61.8467 74.46 61.06 74.82C60.2733 75.18 59.38 75.36 58.38 75.36C57.38 75.36 56.4867 75.18 55.7 74.82C54.9267 74.46 54.32 73.9467 53.88 73.28C53.44 72.6133 53.22 71.8467 53.22 70.98C53.22 70.1133 53.44 69.3667 53.88 68.74C54.32 68.1133 54.9133 67.66 55.66 67.38ZM61 64.38C61 63.6333 60.7667 63.06 60.3 62.66C59.8333 62.26 59.1933 62.06 58.38 62.06C57.58 62.06 56.9467 62.26 56.48 62.66C56.0133 63.06 55.78 63.64 55.78 64.4C55.78 65.0667 56.02 65.6133 56.5 66.04C56.9933 66.4533 57.62 66.66 58.38 66.66C59.14 66.66 59.7667 66.4467 60.26 66.02C60.7533 65.5933 61 65.0467 61 64.38ZM58.38 68.38C57.5 68.38 56.78 68.6 56.22 69.04C55.6733 69.4667 55.4 70.0867 55.4 70.9C55.4 71.66 55.6667 72.28 56.2 72.76C56.7333 73.2267 57.46 73.46 58.38 73.46C59.2867 73.46 60 73.22 60.52 72.74C61.0533 72.26 61.32 71.6467 61.32 70.9C61.32 70.1 61.0467 69.48 60.5 69.04C59.9667 68.6 59.26 68.38 58.38 68.38ZM75.3539 62.38H68.6539V66.36C68.9339 65.9867 69.3472 65.6733 69.8939 65.42C70.4539 65.1667 71.0472 65.04 71.6739 65.04C72.7939 65.04 73.7006 65.28 74.3939 65.76C75.1006 66.24 75.6006 66.8467 75.8939 67.58C76.2006 68.3133 76.3539 69.0867 76.3539 69.9C76.3539 70.8867 76.1606 71.7667 75.7739 72.54C75.4006 73.3 74.8339 73.9 74.0739 74.34C73.3272 74.78 72.4072 75 71.3139 75C69.8606 75 68.6939 74.64 67.8139 73.92C66.9339 73.2 66.4072 72.2467 66.2339 71.06H68.4539C68.6006 71.6867 68.9272 72.1867 69.4339 72.56C69.9406 72.92 70.5739 73.1 71.3339 73.1C72.2806 73.1 72.9872 72.8133 73.4539 72.24C73.9339 71.6667 74.1739 70.9067 74.1739 69.96C74.1739 69 73.9339 68.2667 73.4539 67.76C72.9739 67.24 72.2672 66.98 71.3339 66.98C70.6806 66.98 70.1272 67.1467 69.6739 67.48C69.2339 67.8 68.9139 68.24 68.7139 68.8H66.5539V60.38H75.3539V62.38ZM78.3673 63.94C78.3673 62.9667 78.6473 62.2067 79.2073 61.66C79.7807 61.1 80.514 60.82 81.4073 60.82C82.3007 60.82 83.0273 61.1 83.5873 61.66C84.1607 62.2067 84.4473 62.9667 84.4473 63.94C84.4473 64.9133 84.1607 65.68 83.5873 66.24C83.0273 66.8 82.3007 67.08 81.4073 67.08C80.514 67.08 79.7807 66.8 79.2073 66.24C78.6473 65.68 78.3673 64.9133 78.3673 63.94ZM90.5673 61.08L82.5873 75H80.3473L88.3273 61.08H90.5673ZM81.4073 62.2C80.5673 62.2 80.1473 62.78 80.1473 63.94C80.1473 65.1133 80.5673 65.7 81.4073 65.7C81.8073 65.7 82.114 65.56 82.3273 65.28C82.554 64.9867 82.6673 64.54 82.6673 63.94C82.6673 62.78 82.2473 62.2 81.4073 62.2ZM86.5073 72.12C86.5073 71.1467 86.7873 70.3867 87.3473 69.84C87.9207 69.28 88.654 69 89.5473 69C90.4273 69 91.1473 69.28 91.7073 69.84C92.2807 70.3867 92.5673 71.1467 92.5673 72.12C92.5673 73.0933 92.2807 73.86 91.7073 74.42C91.1473 74.98 90.4273 75.26 89.5473 75.26C88.654 75.26 87.9207 74.98 87.3473 74.42C86.7873 73.86 86.5073 73.0933 86.5073 72.12ZM89.5273 70.38C88.6873 70.38 88.2673 70.96 88.2673 72.12C88.2673 73.28 88.6873 73.86 89.5273 73.86C90.3673 73.86 90.7873 73.28 90.7873 72.12C90.7873 70.96 90.3673 70.38 89.5273 70.38Z" fill="#F1A944"/>
</g>
<defs>
<clipPath id="clip0_137_54">
<rect width="137" height="136" fill="white"/>
</clipPath>
</defs>
</svg>
