<svg width="137" height="136" viewBox="0 0 137 136" fill="none" xmlns="http://www.w3.org/2000/svg">
<g clip-path="url(#clip0_137_34)">
<path d="M106.28 30.2931L111.743 36.6326C119.459 49.1207 120.882 53.4797 122.018 67.8868C120.644 85.517 113.931 99.6264 102.608 108.885C91.6696 117.829 77.0098 121.862 60.221 120.535L56.2264 119.612C51.9942 118.642 51.9096 118.606 47.8955 116.923L44.2851 115.422C32.4284 108.212 28.8831 105.225 20.8451 92.2189C15.187 78.6856 14.4642 74.1583 15.6134 59.7545C20.0736 41.1599 27.5451 27.7172 50.8092 17.8503L46.1831 3.69567C31.9824 9.60154 29.7165 11.5464 22.6585 17.6109L19.9792 19.8988L18.41 21.7466C10.9222 30.4258 9.57114 31.9888 3.31072 47.0302C2.86471 48.9459 2.4578 50.5899 2.12899 51.8843C0.784451 57.3047 0.78441 57.3047 0.377466 62.887C0.276544 64.2429 0.156105 65.9192 -0.0131836 68.0647L0.217948 70.9093C0.986257 81.09 1.19464 83.8278 7.49413 98.9694C18.9276 117.48 25.8522 121.661 35.4398 127.447L37.4745 128.677C68.4283 141.391 87.0956 136.233 108.83 122.991C124.586 109.594 127.168 104.497 133.666 88.9117C134.112 86.9927 134.519 85.352 134.845 84.0381C136.186 78.6177 136.186 78.6177 136.593 73.0354C136.694 71.6827 136.814 70.0064 136.987 67.8577L136.127 57.2012C135.652 55.2951 135.268 53.6415 134.955 52.3471C133.679 46.9137 133.679 46.9137 131.498 41.7683C130.974 40.5354 130.326 39.0111 129.512 37.0565C116.376 15.7792 102.292 2.84136 69.7141 -0.0161133V14.8472L70.4109 14.8958C78.5628 15.4686 89.7065 16.2258 106.28 30.2931Z" fill="#F1A944"/>
<path d="M54.04 71.04C54.1733 71.7067 54.46 72.2133 54.9 72.56C55.34 72.9067 55.9333 73.08 56.68 73.08C57.6267 73.08 58.32 72.7067 58.76 71.96C59.2 71.2133 59.42 69.94 59.42 68.14C59.1 68.5933 58.6467 68.9467 58.06 69.2C57.4867 69.44 56.86 69.56 56.18 69.56C55.3133 69.56 54.5267 69.3867 53.82 69.04C53.1133 68.68 52.5533 68.1533 52.14 67.46C51.74 66.7533 51.54 65.9 51.54 64.9C51.54 63.4333 51.9667 62.2667 52.82 61.4C53.6867 60.52 54.8733 60.08 56.38 60.08C58.1933 60.08 59.48 60.6867 60.24 61.9C61.0133 63.1 61.4 64.9467 61.4 67.44C61.4 69.16 61.2533 70.5667 60.96 71.66C60.68 72.7533 60.1867 73.58 59.48 74.14C58.7733 74.7 57.7933 74.98 56.54 74.98C55.1133 74.98 54.0133 74.6067 53.24 73.86C52.4667 73.1133 52.0333 72.1733 51.94 71.04H54.04ZM56.58 67.64C57.38 67.64 58.0067 67.3933 58.46 66.9C58.9267 66.3933 59.16 65.7267 59.16 64.9C59.16 63.98 58.9133 63.2667 58.42 62.76C57.94 62.24 57.28 61.98 56.44 61.98C55.6 61.98 54.9333 62.2467 54.44 62.78C53.96 63.3 53.72 63.9867 53.72 64.84C53.72 65.6533 53.9533 66.3267 54.42 66.86C54.9 67.38 55.62 67.64 56.58 67.64ZM73.2953 62.38H66.5953V66.36C66.8753 65.9867 67.2886 65.6733 67.8353 65.42C68.3953 65.1667 68.9886 65.04 69.6153 65.04C70.7353 65.04 71.642 65.28 72.3353 65.76C73.042 66.24 73.542 66.8467 73.8353 67.58C74.142 68.3133 74.2953 69.0867 74.2953 69.9C74.2953 70.8867 74.102 71.7667 73.7153 72.54C73.342 73.3 72.7753 73.9 72.0153 74.34C71.2686 74.78 70.3486 75 69.2553 75C67.802 75 66.6353 74.64 65.7553 73.92C64.8753 73.2 64.3486 72.2467 64.1753 71.06H66.3953C66.542 71.6867 66.8686 72.1867 67.3753 72.56C67.882 72.92 68.5153 73.1 69.2753 73.1C70.222 73.1 70.9286 72.8133 71.3953 72.24C71.8753 71.6667 72.1153 70.9067 72.1153 69.96C72.1153 69 71.8753 68.2667 71.3953 67.76C70.9153 67.24 70.2086 66.98 69.2753 66.98C68.622 66.98 68.0686 67.1467 67.6153 67.48C67.1753 67.8 66.8553 68.24 66.6553 68.8H64.4953V60.38H73.2953V62.38ZM76.3088 63.94C76.3088 62.9667 76.5888 62.2067 77.1488 61.66C77.7221 61.1 78.4554 60.82 79.3488 60.82C80.2421 60.82 80.9688 61.1 81.5288 61.66C82.1021 62.2067 82.3888 62.9667 82.3888 63.94C82.3888 64.9133 82.1021 65.68 81.5288 66.24C80.9688 66.8 80.2421 67.08 79.3488 67.08C78.4554 67.08 77.7221 66.8 77.1488 66.24C76.5888 65.68 76.3088 64.9133 76.3088 63.94ZM88.5088 61.08L80.5288 75H78.2888L86.2688 61.08H88.5088ZM79.3488 62.2C78.5088 62.2 78.0888 62.78 78.0888 63.94C78.0888 65.1133 78.5088 65.7 79.3488 65.7C79.7488 65.7 80.0554 65.56 80.2688 65.28C80.4954 64.9867 80.6087 64.54 80.6087 63.94C80.6087 62.78 80.1888 62.2 79.3488 62.2ZM84.4488 72.12C84.4488 71.1467 84.7288 70.3867 85.2888 69.84C85.8621 69.28 86.5954 69 87.4888 69C88.3688 69 89.0888 69.28 89.6488 69.84C90.2221 70.3867 90.5088 71.1467 90.5088 72.12C90.5088 73.0933 90.2221 73.86 89.6488 74.42C89.0888 74.98 88.3688 75.26 87.4888 75.26C86.5954 75.26 85.8621 74.98 85.2888 74.42C84.7288 73.86 84.4488 73.0933 84.4488 72.12ZM87.4688 70.38C86.6288 70.38 86.2088 70.96 86.2088 72.12C86.2088 73.28 86.6288 73.86 87.4688 73.86C88.3088 73.86 88.7288 73.28 88.7288 72.12C88.7288 70.96 88.3088 70.38 87.4688 70.38Z" fill="#3D2665"/>
</g>
<defs>
<clipPath id="clip0_137_34">
<rect width="137" height="136" fill="white"/>
</clipPath>
</defs>
</svg>
